%TF.GenerationSoftware,KiCad,Pcbnew,9.0.2*%
%TF.CreationDate,2025-06-11T04:48:03-04:00*%
%TF.ProjectId,HackCharm,4861636b-4368-4617-926d-2e6b69636164,rev?*%
%TF.SameCoordinates,Original*%
%TF.FileFunction,Drillmap*%
%TF.FilePolarity,Positive*%
%FSLAX45Y45*%
G04 Gerber Fmt 4.5, Leading zero omitted, Abs format (unit mm)*
G04 Created by KiCad (PCBNEW 9.0.2) date 2025-06-11 04:48:03*
%MOMM*%
%LPD*%
G01*
G04 APERTURE LIST*
%ADD10C,0.050000*%
%ADD11C,0.200000*%
%ADD12C,0.100000*%
G04 APERTURE END LIST*
D10*
X17580000Y-9940000D02*
G75*
G02*
X13070418Y-9940000I-2254791J0D01*
G01*
X13070418Y-9940000D02*
G75*
G02*
X17580000Y-9940000I2254791J0D01*
G01*
D11*
D12*
X14421800Y-10792000D02*
X14501800Y-10872000D01*
X14501800Y-10792000D02*
X14421800Y-10872000D01*
X14675800Y-10792000D02*
X14755800Y-10872000D01*
X14755800Y-10792000D02*
X14675800Y-10872000D01*
X14929800Y-10792000D02*
X15009800Y-10872000D01*
X15009800Y-10792000D02*
X14929800Y-10872000D01*
X15183800Y-10792000D02*
X15263800Y-10872000D01*
X15263800Y-10792000D02*
X15183800Y-10872000D01*
X15437800Y-10792000D02*
X15517800Y-10872000D01*
X15517800Y-10792000D02*
X15437800Y-10872000D01*
X15691800Y-10792000D02*
X15771800Y-10872000D01*
X15771800Y-10792000D02*
X15691800Y-10872000D01*
X15945800Y-10792000D02*
X16025800Y-10872000D01*
X16025800Y-10792000D02*
X15945800Y-10872000D01*
X16199800Y-10792000D02*
X16279800Y-10872000D01*
X16279800Y-10792000D02*
X16199800Y-10872000D01*
X14592450Y-8079850D02*
G75*
G02*
X14503550Y-8079850I-44450J0D01*
G01*
X14503550Y-8079850D02*
G75*
G02*
X14592450Y-8079850I44450J0D01*
G01*
X14592450Y-8333850D02*
G75*
G02*
X14503550Y-8333850I-44450J0D01*
G01*
X14503550Y-8333850D02*
G75*
G02*
X14592450Y-8333850I44450J0D01*
G01*
X14592450Y-8587850D02*
G75*
G02*
X14503550Y-8587850I-44450J0D01*
G01*
X14503550Y-8587850D02*
G75*
G02*
X14592450Y-8587850I44450J0D01*
G01*
X14592450Y-8841850D02*
G75*
G02*
X14503550Y-8841850I-44450J0D01*
G01*
X14503550Y-8841850D02*
G75*
G02*
X14592450Y-8841850I44450J0D01*
G01*
X14592450Y-9095850D02*
G75*
G02*
X14503550Y-9095850I-44450J0D01*
G01*
X14503550Y-9095850D02*
G75*
G02*
X14592450Y-9095850I44450J0D01*
G01*
X14592450Y-9349850D02*
G75*
G02*
X14503550Y-9349850I-44450J0D01*
G01*
X14503550Y-9349850D02*
G75*
G02*
X14592450Y-9349850I44450J0D01*
G01*
X14592450Y-9603850D02*
G75*
G02*
X14503550Y-9603850I-44450J0D01*
G01*
X14503550Y-9603850D02*
G75*
G02*
X14592450Y-9603850I44450J0D01*
G01*
X16116450Y-8079850D02*
G75*
G02*
X16027550Y-8079850I-44450J0D01*
G01*
X16027550Y-8079850D02*
G75*
G02*
X16116450Y-8079850I44450J0D01*
G01*
X16116450Y-8333850D02*
G75*
G02*
X16027550Y-8333850I-44450J0D01*
G01*
X16027550Y-8333850D02*
G75*
G02*
X16116450Y-8333850I44450J0D01*
G01*
X16116450Y-8587850D02*
G75*
G02*
X16027550Y-8587850I-44450J0D01*
G01*
X16027550Y-8587850D02*
G75*
G02*
X16116450Y-8587850I44450J0D01*
G01*
X16116450Y-8841850D02*
G75*
G02*
X16027550Y-8841850I-44450J0D01*
G01*
X16027550Y-8841850D02*
G75*
G02*
X16116450Y-8841850I44450J0D01*
G01*
X16116450Y-9095850D02*
G75*
G02*
X16027550Y-9095850I-44450J0D01*
G01*
X16027550Y-9095850D02*
G75*
G02*
X16116450Y-9095850I44450J0D01*
G01*
X16116450Y-9349850D02*
G75*
G02*
X16027550Y-9349850I-44450J0D01*
G01*
X16027550Y-9349850D02*
G75*
G02*
X16116450Y-9349850I44450J0D01*
G01*
X16116450Y-9603850D02*
G75*
G02*
X16027550Y-9603850I-44450J0D01*
G01*
X16027550Y-9603850D02*
G75*
G02*
X16116450Y-9603850I44450J0D01*
G01*
X16660000Y-9433000D02*
X16660000Y-9533000D01*
X16610000Y-9483000D02*
X16710000Y-9483000D01*
X16660000Y-9687000D02*
X16660000Y-9787000D01*
X16610000Y-9737000D02*
X16710000Y-9737000D01*
X16660000Y-9941000D02*
X16660000Y-10041000D01*
X16610000Y-9991000D02*
X16710000Y-9991000D01*
X16660000Y-10195000D02*
X16660000Y-10295000D01*
X16610000Y-10245000D02*
X16710000Y-10245000D01*
D11*
X13328695Y-12508775D02*
X13328695Y-12308775D01*
X13328695Y-12308775D02*
X13376314Y-12308775D01*
X13376314Y-12308775D02*
X13404885Y-12318299D01*
X13404885Y-12318299D02*
X13423933Y-12337346D01*
X13423933Y-12337346D02*
X13433456Y-12356394D01*
X13433456Y-12356394D02*
X13442980Y-12394489D01*
X13442980Y-12394489D02*
X13442980Y-12423061D01*
X13442980Y-12423061D02*
X13433456Y-12461156D01*
X13433456Y-12461156D02*
X13423933Y-12480203D01*
X13423933Y-12480203D02*
X13404885Y-12499251D01*
X13404885Y-12499251D02*
X13376314Y-12508775D01*
X13376314Y-12508775D02*
X13328695Y-12508775D01*
X13528695Y-12508775D02*
X13528695Y-12375441D01*
X13528695Y-12413537D02*
X13538218Y-12394489D01*
X13538218Y-12394489D02*
X13547742Y-12384965D01*
X13547742Y-12384965D02*
X13566790Y-12375441D01*
X13566790Y-12375441D02*
X13585837Y-12375441D01*
X13652504Y-12508775D02*
X13652504Y-12375441D01*
X13652504Y-12308775D02*
X13642980Y-12318299D01*
X13642980Y-12318299D02*
X13652504Y-12327822D01*
X13652504Y-12327822D02*
X13662028Y-12318299D01*
X13662028Y-12318299D02*
X13652504Y-12308775D01*
X13652504Y-12308775D02*
X13652504Y-12327822D01*
X13776314Y-12508775D02*
X13757266Y-12499251D01*
X13757266Y-12499251D02*
X13747742Y-12480203D01*
X13747742Y-12480203D02*
X13747742Y-12308775D01*
X13881075Y-12508775D02*
X13862028Y-12499251D01*
X13862028Y-12499251D02*
X13852504Y-12480203D01*
X13852504Y-12480203D02*
X13852504Y-12308775D01*
X14109647Y-12508775D02*
X14109647Y-12308775D01*
X14109647Y-12308775D02*
X14176314Y-12451632D01*
X14176314Y-12451632D02*
X14242980Y-12308775D01*
X14242980Y-12308775D02*
X14242980Y-12508775D01*
X14423933Y-12508775D02*
X14423933Y-12404013D01*
X14423933Y-12404013D02*
X14414409Y-12384965D01*
X14414409Y-12384965D02*
X14395361Y-12375441D01*
X14395361Y-12375441D02*
X14357266Y-12375441D01*
X14357266Y-12375441D02*
X14338218Y-12384965D01*
X14423933Y-12499251D02*
X14404885Y-12508775D01*
X14404885Y-12508775D02*
X14357266Y-12508775D01*
X14357266Y-12508775D02*
X14338218Y-12499251D01*
X14338218Y-12499251D02*
X14328695Y-12480203D01*
X14328695Y-12480203D02*
X14328695Y-12461156D01*
X14328695Y-12461156D02*
X14338218Y-12442108D01*
X14338218Y-12442108D02*
X14357266Y-12432584D01*
X14357266Y-12432584D02*
X14404885Y-12432584D01*
X14404885Y-12432584D02*
X14423933Y-12423061D01*
X14519171Y-12375441D02*
X14519171Y-12575441D01*
X14519171Y-12384965D02*
X14538218Y-12375441D01*
X14538218Y-12375441D02*
X14576314Y-12375441D01*
X14576314Y-12375441D02*
X14595361Y-12384965D01*
X14595361Y-12384965D02*
X14604885Y-12394489D01*
X14604885Y-12394489D02*
X14614409Y-12413537D01*
X14614409Y-12413537D02*
X14614409Y-12470680D01*
X14614409Y-12470680D02*
X14604885Y-12489727D01*
X14604885Y-12489727D02*
X14595361Y-12499251D01*
X14595361Y-12499251D02*
X14576314Y-12508775D01*
X14576314Y-12508775D02*
X14538218Y-12508775D01*
X14538218Y-12508775D02*
X14519171Y-12499251D01*
X14700123Y-12489727D02*
X14709647Y-12499251D01*
X14709647Y-12499251D02*
X14700123Y-12508775D01*
X14700123Y-12508775D02*
X14690599Y-12499251D01*
X14690599Y-12499251D02*
X14700123Y-12489727D01*
X14700123Y-12489727D02*
X14700123Y-12508775D01*
X14700123Y-12384965D02*
X14709647Y-12394489D01*
X14709647Y-12394489D02*
X14700123Y-12404013D01*
X14700123Y-12404013D02*
X14690599Y-12394489D01*
X14690599Y-12394489D02*
X14700123Y-12384965D01*
X14700123Y-12384965D02*
X14700123Y-12404013D01*
D12*
X12987918Y-12797291D02*
X13067918Y-12877291D01*
X13067918Y-12797291D02*
X12987918Y-12877291D01*
D11*
X13366790Y-12728775D02*
X13385837Y-12728775D01*
X13385837Y-12728775D02*
X13404885Y-12738299D01*
X13404885Y-12738299D02*
X13414409Y-12747822D01*
X13414409Y-12747822D02*
X13423933Y-12766870D01*
X13423933Y-12766870D02*
X13433456Y-12804965D01*
X13433456Y-12804965D02*
X13433456Y-12852584D01*
X13433456Y-12852584D02*
X13423933Y-12890680D01*
X13423933Y-12890680D02*
X13414409Y-12909727D01*
X13414409Y-12909727D02*
X13404885Y-12919251D01*
X13404885Y-12919251D02*
X13385837Y-12928775D01*
X13385837Y-12928775D02*
X13366790Y-12928775D01*
X13366790Y-12928775D02*
X13347742Y-12919251D01*
X13347742Y-12919251D02*
X13338218Y-12909727D01*
X13338218Y-12909727D02*
X13328695Y-12890680D01*
X13328695Y-12890680D02*
X13319171Y-12852584D01*
X13319171Y-12852584D02*
X13319171Y-12804965D01*
X13319171Y-12804965D02*
X13328695Y-12766870D01*
X13328695Y-12766870D02*
X13338218Y-12747822D01*
X13338218Y-12747822D02*
X13347742Y-12738299D01*
X13347742Y-12738299D02*
X13366790Y-12728775D01*
X13519171Y-12909727D02*
X13528695Y-12919251D01*
X13528695Y-12919251D02*
X13519171Y-12928775D01*
X13519171Y-12928775D02*
X13509647Y-12919251D01*
X13509647Y-12919251D02*
X13519171Y-12909727D01*
X13519171Y-12909727D02*
X13519171Y-12928775D01*
X13642980Y-12814489D02*
X13623933Y-12804965D01*
X13623933Y-12804965D02*
X13614409Y-12795441D01*
X13614409Y-12795441D02*
X13604885Y-12776394D01*
X13604885Y-12776394D02*
X13604885Y-12766870D01*
X13604885Y-12766870D02*
X13614409Y-12747822D01*
X13614409Y-12747822D02*
X13623933Y-12738299D01*
X13623933Y-12738299D02*
X13642980Y-12728775D01*
X13642980Y-12728775D02*
X13681076Y-12728775D01*
X13681076Y-12728775D02*
X13700123Y-12738299D01*
X13700123Y-12738299D02*
X13709647Y-12747822D01*
X13709647Y-12747822D02*
X13719171Y-12766870D01*
X13719171Y-12766870D02*
X13719171Y-12776394D01*
X13719171Y-12776394D02*
X13709647Y-12795441D01*
X13709647Y-12795441D02*
X13700123Y-12804965D01*
X13700123Y-12804965D02*
X13681076Y-12814489D01*
X13681076Y-12814489D02*
X13642980Y-12814489D01*
X13642980Y-12814489D02*
X13623933Y-12824013D01*
X13623933Y-12824013D02*
X13614409Y-12833537D01*
X13614409Y-12833537D02*
X13604885Y-12852584D01*
X13604885Y-12852584D02*
X13604885Y-12890680D01*
X13604885Y-12890680D02*
X13614409Y-12909727D01*
X13614409Y-12909727D02*
X13623933Y-12919251D01*
X13623933Y-12919251D02*
X13642980Y-12928775D01*
X13642980Y-12928775D02*
X13681076Y-12928775D01*
X13681076Y-12928775D02*
X13700123Y-12919251D01*
X13700123Y-12919251D02*
X13709647Y-12909727D01*
X13709647Y-12909727D02*
X13719171Y-12890680D01*
X13719171Y-12890680D02*
X13719171Y-12852584D01*
X13719171Y-12852584D02*
X13709647Y-12833537D01*
X13709647Y-12833537D02*
X13700123Y-12824013D01*
X13700123Y-12824013D02*
X13681076Y-12814489D01*
X13842980Y-12728775D02*
X13862028Y-12728775D01*
X13862028Y-12728775D02*
X13881076Y-12738299D01*
X13881076Y-12738299D02*
X13890599Y-12747822D01*
X13890599Y-12747822D02*
X13900123Y-12766870D01*
X13900123Y-12766870D02*
X13909647Y-12804965D01*
X13909647Y-12804965D02*
X13909647Y-12852584D01*
X13909647Y-12852584D02*
X13900123Y-12890680D01*
X13900123Y-12890680D02*
X13890599Y-12909727D01*
X13890599Y-12909727D02*
X13881076Y-12919251D01*
X13881076Y-12919251D02*
X13862028Y-12928775D01*
X13862028Y-12928775D02*
X13842980Y-12928775D01*
X13842980Y-12928775D02*
X13823933Y-12919251D01*
X13823933Y-12919251D02*
X13814409Y-12909727D01*
X13814409Y-12909727D02*
X13804885Y-12890680D01*
X13804885Y-12890680D02*
X13795361Y-12852584D01*
X13795361Y-12852584D02*
X13795361Y-12804965D01*
X13795361Y-12804965D02*
X13804885Y-12766870D01*
X13804885Y-12766870D02*
X13814409Y-12747822D01*
X13814409Y-12747822D02*
X13823933Y-12738299D01*
X13823933Y-12738299D02*
X13842980Y-12728775D01*
X14033456Y-12728775D02*
X14052504Y-12728775D01*
X14052504Y-12728775D02*
X14071552Y-12738299D01*
X14071552Y-12738299D02*
X14081076Y-12747822D01*
X14081076Y-12747822D02*
X14090599Y-12766870D01*
X14090599Y-12766870D02*
X14100123Y-12804965D01*
X14100123Y-12804965D02*
X14100123Y-12852584D01*
X14100123Y-12852584D02*
X14090599Y-12890680D01*
X14090599Y-12890680D02*
X14081076Y-12909727D01*
X14081076Y-12909727D02*
X14071552Y-12919251D01*
X14071552Y-12919251D02*
X14052504Y-12928775D01*
X14052504Y-12928775D02*
X14033456Y-12928775D01*
X14033456Y-12928775D02*
X14014409Y-12919251D01*
X14014409Y-12919251D02*
X14004885Y-12909727D01*
X14004885Y-12909727D02*
X13995361Y-12890680D01*
X13995361Y-12890680D02*
X13985837Y-12852584D01*
X13985837Y-12852584D02*
X13985837Y-12804965D01*
X13985837Y-12804965D02*
X13995361Y-12766870D01*
X13995361Y-12766870D02*
X14004885Y-12747822D01*
X14004885Y-12747822D02*
X14014409Y-12738299D01*
X14014409Y-12738299D02*
X14033456Y-12728775D01*
X14185837Y-12928775D02*
X14185837Y-12795441D01*
X14185837Y-12814489D02*
X14195361Y-12804965D01*
X14195361Y-12804965D02*
X14214409Y-12795441D01*
X14214409Y-12795441D02*
X14242980Y-12795441D01*
X14242980Y-12795441D02*
X14262028Y-12804965D01*
X14262028Y-12804965D02*
X14271552Y-12824013D01*
X14271552Y-12824013D02*
X14271552Y-12928775D01*
X14271552Y-12824013D02*
X14281076Y-12804965D01*
X14281076Y-12804965D02*
X14300123Y-12795441D01*
X14300123Y-12795441D02*
X14328695Y-12795441D01*
X14328695Y-12795441D02*
X14347742Y-12804965D01*
X14347742Y-12804965D02*
X14357266Y-12824013D01*
X14357266Y-12824013D02*
X14357266Y-12928775D01*
X14452504Y-12928775D02*
X14452504Y-12795441D01*
X14452504Y-12814489D02*
X14462028Y-12804965D01*
X14462028Y-12804965D02*
X14481076Y-12795441D01*
X14481076Y-12795441D02*
X14509647Y-12795441D01*
X14509647Y-12795441D02*
X14528695Y-12804965D01*
X14528695Y-12804965D02*
X14538218Y-12824013D01*
X14538218Y-12824013D02*
X14538218Y-12928775D01*
X14538218Y-12824013D02*
X14547742Y-12804965D01*
X14547742Y-12804965D02*
X14566790Y-12795441D01*
X14566790Y-12795441D02*
X14595361Y-12795441D01*
X14595361Y-12795441D02*
X14614409Y-12804965D01*
X14614409Y-12804965D02*
X14623933Y-12824013D01*
X14623933Y-12824013D02*
X14623933Y-12928775D01*
X15014409Y-12719251D02*
X14842980Y-12976394D01*
X15271552Y-12728775D02*
X15290600Y-12728775D01*
X15290600Y-12728775D02*
X15309647Y-12738299D01*
X15309647Y-12738299D02*
X15319171Y-12747822D01*
X15319171Y-12747822D02*
X15328695Y-12766870D01*
X15328695Y-12766870D02*
X15338219Y-12804965D01*
X15338219Y-12804965D02*
X15338219Y-12852584D01*
X15338219Y-12852584D02*
X15328695Y-12890680D01*
X15328695Y-12890680D02*
X15319171Y-12909727D01*
X15319171Y-12909727D02*
X15309647Y-12919251D01*
X15309647Y-12919251D02*
X15290600Y-12928775D01*
X15290600Y-12928775D02*
X15271552Y-12928775D01*
X15271552Y-12928775D02*
X15252504Y-12919251D01*
X15252504Y-12919251D02*
X15242980Y-12909727D01*
X15242980Y-12909727D02*
X15233457Y-12890680D01*
X15233457Y-12890680D02*
X15223933Y-12852584D01*
X15223933Y-12852584D02*
X15223933Y-12804965D01*
X15223933Y-12804965D02*
X15233457Y-12766870D01*
X15233457Y-12766870D02*
X15242980Y-12747822D01*
X15242980Y-12747822D02*
X15252504Y-12738299D01*
X15252504Y-12738299D02*
X15271552Y-12728775D01*
X15423933Y-12909727D02*
X15433457Y-12919251D01*
X15433457Y-12919251D02*
X15423933Y-12928775D01*
X15423933Y-12928775D02*
X15414409Y-12919251D01*
X15414409Y-12919251D02*
X15423933Y-12909727D01*
X15423933Y-12909727D02*
X15423933Y-12928775D01*
X15557266Y-12728775D02*
X15576314Y-12728775D01*
X15576314Y-12728775D02*
X15595361Y-12738299D01*
X15595361Y-12738299D02*
X15604885Y-12747822D01*
X15604885Y-12747822D02*
X15614409Y-12766870D01*
X15614409Y-12766870D02*
X15623933Y-12804965D01*
X15623933Y-12804965D02*
X15623933Y-12852584D01*
X15623933Y-12852584D02*
X15614409Y-12890680D01*
X15614409Y-12890680D02*
X15604885Y-12909727D01*
X15604885Y-12909727D02*
X15595361Y-12919251D01*
X15595361Y-12919251D02*
X15576314Y-12928775D01*
X15576314Y-12928775D02*
X15557266Y-12928775D01*
X15557266Y-12928775D02*
X15538219Y-12919251D01*
X15538219Y-12919251D02*
X15528695Y-12909727D01*
X15528695Y-12909727D02*
X15519171Y-12890680D01*
X15519171Y-12890680D02*
X15509647Y-12852584D01*
X15509647Y-12852584D02*
X15509647Y-12804965D01*
X15509647Y-12804965D02*
X15519171Y-12766870D01*
X15519171Y-12766870D02*
X15528695Y-12747822D01*
X15528695Y-12747822D02*
X15538219Y-12738299D01*
X15538219Y-12738299D02*
X15557266Y-12728775D01*
X15690600Y-12728775D02*
X15814409Y-12728775D01*
X15814409Y-12728775D02*
X15747742Y-12804965D01*
X15747742Y-12804965D02*
X15776314Y-12804965D01*
X15776314Y-12804965D02*
X15795361Y-12814489D01*
X15795361Y-12814489D02*
X15804885Y-12824013D01*
X15804885Y-12824013D02*
X15814409Y-12843061D01*
X15814409Y-12843061D02*
X15814409Y-12890680D01*
X15814409Y-12890680D02*
X15804885Y-12909727D01*
X15804885Y-12909727D02*
X15795361Y-12919251D01*
X15795361Y-12919251D02*
X15776314Y-12928775D01*
X15776314Y-12928775D02*
X15719171Y-12928775D01*
X15719171Y-12928775D02*
X15700123Y-12919251D01*
X15700123Y-12919251D02*
X15690600Y-12909727D01*
X16004885Y-12928775D02*
X15890600Y-12928775D01*
X15947742Y-12928775D02*
X15947742Y-12728775D01*
X15947742Y-12728775D02*
X15928695Y-12757346D01*
X15928695Y-12757346D02*
X15909647Y-12776394D01*
X15909647Y-12776394D02*
X15890600Y-12785918D01*
X16185838Y-12728775D02*
X16090600Y-12728775D01*
X16090600Y-12728775D02*
X16081076Y-12824013D01*
X16081076Y-12824013D02*
X16090600Y-12814489D01*
X16090600Y-12814489D02*
X16109647Y-12804965D01*
X16109647Y-12804965D02*
X16157266Y-12804965D01*
X16157266Y-12804965D02*
X16176314Y-12814489D01*
X16176314Y-12814489D02*
X16185838Y-12824013D01*
X16185838Y-12824013D02*
X16195361Y-12843061D01*
X16195361Y-12843061D02*
X16195361Y-12890680D01*
X16195361Y-12890680D02*
X16185838Y-12909727D01*
X16185838Y-12909727D02*
X16176314Y-12919251D01*
X16176314Y-12919251D02*
X16157266Y-12928775D01*
X16157266Y-12928775D02*
X16109647Y-12928775D01*
X16109647Y-12928775D02*
X16090600Y-12919251D01*
X16090600Y-12919251D02*
X16081076Y-12909727D01*
X16271552Y-12728775D02*
X16271552Y-12766870D01*
X16347742Y-12728775D02*
X16347742Y-12766870D01*
X16642981Y-13004965D02*
X16633457Y-12995441D01*
X16633457Y-12995441D02*
X16614409Y-12966870D01*
X16614409Y-12966870D02*
X16604885Y-12947822D01*
X16604885Y-12947822D02*
X16595362Y-12919251D01*
X16595362Y-12919251D02*
X16585838Y-12871632D01*
X16585838Y-12871632D02*
X16585838Y-12833537D01*
X16585838Y-12833537D02*
X16595362Y-12785918D01*
X16595362Y-12785918D02*
X16604885Y-12757346D01*
X16604885Y-12757346D02*
X16614409Y-12738299D01*
X16614409Y-12738299D02*
X16633457Y-12709727D01*
X16633457Y-12709727D02*
X16642981Y-12700203D01*
X16747742Y-12814489D02*
X16728695Y-12804965D01*
X16728695Y-12804965D02*
X16719171Y-12795441D01*
X16719171Y-12795441D02*
X16709647Y-12776394D01*
X16709647Y-12776394D02*
X16709647Y-12766870D01*
X16709647Y-12766870D02*
X16719171Y-12747822D01*
X16719171Y-12747822D02*
X16728695Y-12738299D01*
X16728695Y-12738299D02*
X16747742Y-12728775D01*
X16747742Y-12728775D02*
X16785838Y-12728775D01*
X16785838Y-12728775D02*
X16804885Y-12738299D01*
X16804885Y-12738299D02*
X16814409Y-12747822D01*
X16814409Y-12747822D02*
X16823933Y-12766870D01*
X16823933Y-12766870D02*
X16823933Y-12776394D01*
X16823933Y-12776394D02*
X16814409Y-12795441D01*
X16814409Y-12795441D02*
X16804885Y-12804965D01*
X16804885Y-12804965D02*
X16785838Y-12814489D01*
X16785838Y-12814489D02*
X16747742Y-12814489D01*
X16747742Y-12814489D02*
X16728695Y-12824013D01*
X16728695Y-12824013D02*
X16719171Y-12833537D01*
X16719171Y-12833537D02*
X16709647Y-12852584D01*
X16709647Y-12852584D02*
X16709647Y-12890680D01*
X16709647Y-12890680D02*
X16719171Y-12909727D01*
X16719171Y-12909727D02*
X16728695Y-12919251D01*
X16728695Y-12919251D02*
X16747742Y-12928775D01*
X16747742Y-12928775D02*
X16785838Y-12928775D01*
X16785838Y-12928775D02*
X16804885Y-12919251D01*
X16804885Y-12919251D02*
X16814409Y-12909727D01*
X16814409Y-12909727D02*
X16823933Y-12890680D01*
X16823933Y-12890680D02*
X16823933Y-12852584D01*
X16823933Y-12852584D02*
X16814409Y-12833537D01*
X16814409Y-12833537D02*
X16804885Y-12824013D01*
X16804885Y-12824013D02*
X16785838Y-12814489D01*
X17062028Y-12928775D02*
X17062028Y-12728775D01*
X17147743Y-12928775D02*
X17147743Y-12824013D01*
X17147743Y-12824013D02*
X17138219Y-12804965D01*
X17138219Y-12804965D02*
X17119171Y-12795441D01*
X17119171Y-12795441D02*
X17090600Y-12795441D01*
X17090600Y-12795441D02*
X17071552Y-12804965D01*
X17071552Y-12804965D02*
X17062028Y-12814489D01*
X17271552Y-12928775D02*
X17252505Y-12919251D01*
X17252505Y-12919251D02*
X17242981Y-12909727D01*
X17242981Y-12909727D02*
X17233457Y-12890680D01*
X17233457Y-12890680D02*
X17233457Y-12833537D01*
X17233457Y-12833537D02*
X17242981Y-12814489D01*
X17242981Y-12814489D02*
X17252505Y-12804965D01*
X17252505Y-12804965D02*
X17271552Y-12795441D01*
X17271552Y-12795441D02*
X17300124Y-12795441D01*
X17300124Y-12795441D02*
X17319171Y-12804965D01*
X17319171Y-12804965D02*
X17328695Y-12814489D01*
X17328695Y-12814489D02*
X17338219Y-12833537D01*
X17338219Y-12833537D02*
X17338219Y-12890680D01*
X17338219Y-12890680D02*
X17328695Y-12909727D01*
X17328695Y-12909727D02*
X17319171Y-12919251D01*
X17319171Y-12919251D02*
X17300124Y-12928775D01*
X17300124Y-12928775D02*
X17271552Y-12928775D01*
X17452505Y-12928775D02*
X17433457Y-12919251D01*
X17433457Y-12919251D02*
X17423933Y-12900203D01*
X17423933Y-12900203D02*
X17423933Y-12728775D01*
X17604886Y-12919251D02*
X17585838Y-12928775D01*
X17585838Y-12928775D02*
X17547743Y-12928775D01*
X17547743Y-12928775D02*
X17528695Y-12919251D01*
X17528695Y-12919251D02*
X17519171Y-12900203D01*
X17519171Y-12900203D02*
X17519171Y-12824013D01*
X17519171Y-12824013D02*
X17528695Y-12804965D01*
X17528695Y-12804965D02*
X17547743Y-12795441D01*
X17547743Y-12795441D02*
X17585838Y-12795441D01*
X17585838Y-12795441D02*
X17604886Y-12804965D01*
X17604886Y-12804965D02*
X17614409Y-12824013D01*
X17614409Y-12824013D02*
X17614409Y-12843061D01*
X17614409Y-12843061D02*
X17519171Y-12862108D01*
X17690600Y-12919251D02*
X17709647Y-12928775D01*
X17709647Y-12928775D02*
X17747743Y-12928775D01*
X17747743Y-12928775D02*
X17766790Y-12919251D01*
X17766790Y-12919251D02*
X17776314Y-12900203D01*
X17776314Y-12900203D02*
X17776314Y-12890680D01*
X17776314Y-12890680D02*
X17766790Y-12871632D01*
X17766790Y-12871632D02*
X17747743Y-12862108D01*
X17747743Y-12862108D02*
X17719171Y-12862108D01*
X17719171Y-12862108D02*
X17700124Y-12852584D01*
X17700124Y-12852584D02*
X17690600Y-12833537D01*
X17690600Y-12833537D02*
X17690600Y-12824013D01*
X17690600Y-12824013D02*
X17700124Y-12804965D01*
X17700124Y-12804965D02*
X17719171Y-12795441D01*
X17719171Y-12795441D02*
X17747743Y-12795441D01*
X17747743Y-12795441D02*
X17766790Y-12804965D01*
X17842981Y-13004965D02*
X17852505Y-12995441D01*
X17852505Y-12995441D02*
X17871552Y-12966870D01*
X17871552Y-12966870D02*
X17881076Y-12947822D01*
X17881076Y-12947822D02*
X17890600Y-12919251D01*
X17890600Y-12919251D02*
X17900124Y-12871632D01*
X17900124Y-12871632D02*
X17900124Y-12833537D01*
X17900124Y-12833537D02*
X17890600Y-12785918D01*
X17890600Y-12785918D02*
X17881076Y-12757346D01*
X17881076Y-12757346D02*
X17871552Y-12738299D01*
X17871552Y-12738299D02*
X17852505Y-12709727D01*
X17852505Y-12709727D02*
X17842981Y-12700203D01*
D12*
X13067918Y-13101291D02*
G75*
G02*
X12979018Y-13101291I-44450J0D01*
G01*
X12979018Y-13101291D02*
G75*
G02*
X13067918Y-13101291I44450J0D01*
G01*
D11*
X13366790Y-12992775D02*
X13385837Y-12992775D01*
X13385837Y-12992775D02*
X13404885Y-13002299D01*
X13404885Y-13002299D02*
X13414409Y-13011822D01*
X13414409Y-13011822D02*
X13423933Y-13030870D01*
X13423933Y-13030870D02*
X13433456Y-13068965D01*
X13433456Y-13068965D02*
X13433456Y-13116584D01*
X13433456Y-13116584D02*
X13423933Y-13154680D01*
X13423933Y-13154680D02*
X13414409Y-13173727D01*
X13414409Y-13173727D02*
X13404885Y-13183251D01*
X13404885Y-13183251D02*
X13385837Y-13192775D01*
X13385837Y-13192775D02*
X13366790Y-13192775D01*
X13366790Y-13192775D02*
X13347742Y-13183251D01*
X13347742Y-13183251D02*
X13338218Y-13173727D01*
X13338218Y-13173727D02*
X13328695Y-13154680D01*
X13328695Y-13154680D02*
X13319171Y-13116584D01*
X13319171Y-13116584D02*
X13319171Y-13068965D01*
X13319171Y-13068965D02*
X13328695Y-13030870D01*
X13328695Y-13030870D02*
X13338218Y-13011822D01*
X13338218Y-13011822D02*
X13347742Y-13002299D01*
X13347742Y-13002299D02*
X13366790Y-12992775D01*
X13519171Y-13173727D02*
X13528695Y-13183251D01*
X13528695Y-13183251D02*
X13519171Y-13192775D01*
X13519171Y-13192775D02*
X13509647Y-13183251D01*
X13509647Y-13183251D02*
X13519171Y-13173727D01*
X13519171Y-13173727D02*
X13519171Y-13192775D01*
X13642980Y-13078489D02*
X13623933Y-13068965D01*
X13623933Y-13068965D02*
X13614409Y-13059441D01*
X13614409Y-13059441D02*
X13604885Y-13040394D01*
X13604885Y-13040394D02*
X13604885Y-13030870D01*
X13604885Y-13030870D02*
X13614409Y-13011822D01*
X13614409Y-13011822D02*
X13623933Y-13002299D01*
X13623933Y-13002299D02*
X13642980Y-12992775D01*
X13642980Y-12992775D02*
X13681076Y-12992775D01*
X13681076Y-12992775D02*
X13700123Y-13002299D01*
X13700123Y-13002299D02*
X13709647Y-13011822D01*
X13709647Y-13011822D02*
X13719171Y-13030870D01*
X13719171Y-13030870D02*
X13719171Y-13040394D01*
X13719171Y-13040394D02*
X13709647Y-13059441D01*
X13709647Y-13059441D02*
X13700123Y-13068965D01*
X13700123Y-13068965D02*
X13681076Y-13078489D01*
X13681076Y-13078489D02*
X13642980Y-13078489D01*
X13642980Y-13078489D02*
X13623933Y-13088013D01*
X13623933Y-13088013D02*
X13614409Y-13097537D01*
X13614409Y-13097537D02*
X13604885Y-13116584D01*
X13604885Y-13116584D02*
X13604885Y-13154680D01*
X13604885Y-13154680D02*
X13614409Y-13173727D01*
X13614409Y-13173727D02*
X13623933Y-13183251D01*
X13623933Y-13183251D02*
X13642980Y-13192775D01*
X13642980Y-13192775D02*
X13681076Y-13192775D01*
X13681076Y-13192775D02*
X13700123Y-13183251D01*
X13700123Y-13183251D02*
X13709647Y-13173727D01*
X13709647Y-13173727D02*
X13719171Y-13154680D01*
X13719171Y-13154680D02*
X13719171Y-13116584D01*
X13719171Y-13116584D02*
X13709647Y-13097537D01*
X13709647Y-13097537D02*
X13700123Y-13088013D01*
X13700123Y-13088013D02*
X13681076Y-13078489D01*
X13833456Y-13078489D02*
X13814409Y-13068965D01*
X13814409Y-13068965D02*
X13804885Y-13059441D01*
X13804885Y-13059441D02*
X13795361Y-13040394D01*
X13795361Y-13040394D02*
X13795361Y-13030870D01*
X13795361Y-13030870D02*
X13804885Y-13011822D01*
X13804885Y-13011822D02*
X13814409Y-13002299D01*
X13814409Y-13002299D02*
X13833456Y-12992775D01*
X13833456Y-12992775D02*
X13871552Y-12992775D01*
X13871552Y-12992775D02*
X13890599Y-13002299D01*
X13890599Y-13002299D02*
X13900123Y-13011822D01*
X13900123Y-13011822D02*
X13909647Y-13030870D01*
X13909647Y-13030870D02*
X13909647Y-13040394D01*
X13909647Y-13040394D02*
X13900123Y-13059441D01*
X13900123Y-13059441D02*
X13890599Y-13068965D01*
X13890599Y-13068965D02*
X13871552Y-13078489D01*
X13871552Y-13078489D02*
X13833456Y-13078489D01*
X13833456Y-13078489D02*
X13814409Y-13088013D01*
X13814409Y-13088013D02*
X13804885Y-13097537D01*
X13804885Y-13097537D02*
X13795361Y-13116584D01*
X13795361Y-13116584D02*
X13795361Y-13154680D01*
X13795361Y-13154680D02*
X13804885Y-13173727D01*
X13804885Y-13173727D02*
X13814409Y-13183251D01*
X13814409Y-13183251D02*
X13833456Y-13192775D01*
X13833456Y-13192775D02*
X13871552Y-13192775D01*
X13871552Y-13192775D02*
X13890599Y-13183251D01*
X13890599Y-13183251D02*
X13900123Y-13173727D01*
X13900123Y-13173727D02*
X13909647Y-13154680D01*
X13909647Y-13154680D02*
X13909647Y-13116584D01*
X13909647Y-13116584D02*
X13900123Y-13097537D01*
X13900123Y-13097537D02*
X13890599Y-13088013D01*
X13890599Y-13088013D02*
X13871552Y-13078489D01*
X14004885Y-13192775D02*
X14042980Y-13192775D01*
X14042980Y-13192775D02*
X14062028Y-13183251D01*
X14062028Y-13183251D02*
X14071552Y-13173727D01*
X14071552Y-13173727D02*
X14090599Y-13145156D01*
X14090599Y-13145156D02*
X14100123Y-13107061D01*
X14100123Y-13107061D02*
X14100123Y-13030870D01*
X14100123Y-13030870D02*
X14090599Y-13011822D01*
X14090599Y-13011822D02*
X14081076Y-13002299D01*
X14081076Y-13002299D02*
X14062028Y-12992775D01*
X14062028Y-12992775D02*
X14023933Y-12992775D01*
X14023933Y-12992775D02*
X14004885Y-13002299D01*
X14004885Y-13002299D02*
X13995361Y-13011822D01*
X13995361Y-13011822D02*
X13985837Y-13030870D01*
X13985837Y-13030870D02*
X13985837Y-13078489D01*
X13985837Y-13078489D02*
X13995361Y-13097537D01*
X13995361Y-13097537D02*
X14004885Y-13107061D01*
X14004885Y-13107061D02*
X14023933Y-13116584D01*
X14023933Y-13116584D02*
X14062028Y-13116584D01*
X14062028Y-13116584D02*
X14081076Y-13107061D01*
X14081076Y-13107061D02*
X14090599Y-13097537D01*
X14090599Y-13097537D02*
X14100123Y-13078489D01*
X14185837Y-13192775D02*
X14185837Y-13059441D01*
X14185837Y-13078489D02*
X14195361Y-13068965D01*
X14195361Y-13068965D02*
X14214409Y-13059441D01*
X14214409Y-13059441D02*
X14242980Y-13059441D01*
X14242980Y-13059441D02*
X14262028Y-13068965D01*
X14262028Y-13068965D02*
X14271552Y-13088013D01*
X14271552Y-13088013D02*
X14271552Y-13192775D01*
X14271552Y-13088013D02*
X14281076Y-13068965D01*
X14281076Y-13068965D02*
X14300123Y-13059441D01*
X14300123Y-13059441D02*
X14328695Y-13059441D01*
X14328695Y-13059441D02*
X14347742Y-13068965D01*
X14347742Y-13068965D02*
X14357266Y-13088013D01*
X14357266Y-13088013D02*
X14357266Y-13192775D01*
X14452504Y-13192775D02*
X14452504Y-13059441D01*
X14452504Y-13078489D02*
X14462028Y-13068965D01*
X14462028Y-13068965D02*
X14481076Y-13059441D01*
X14481076Y-13059441D02*
X14509647Y-13059441D01*
X14509647Y-13059441D02*
X14528695Y-13068965D01*
X14528695Y-13068965D02*
X14538218Y-13088013D01*
X14538218Y-13088013D02*
X14538218Y-13192775D01*
X14538218Y-13088013D02*
X14547742Y-13068965D01*
X14547742Y-13068965D02*
X14566790Y-13059441D01*
X14566790Y-13059441D02*
X14595361Y-13059441D01*
X14595361Y-13059441D02*
X14614409Y-13068965D01*
X14614409Y-13068965D02*
X14623933Y-13088013D01*
X14623933Y-13088013D02*
X14623933Y-13192775D01*
X15014409Y-12983251D02*
X14842980Y-13240394D01*
X15271552Y-12992775D02*
X15290600Y-12992775D01*
X15290600Y-12992775D02*
X15309647Y-13002299D01*
X15309647Y-13002299D02*
X15319171Y-13011822D01*
X15319171Y-13011822D02*
X15328695Y-13030870D01*
X15328695Y-13030870D02*
X15338219Y-13068965D01*
X15338219Y-13068965D02*
X15338219Y-13116584D01*
X15338219Y-13116584D02*
X15328695Y-13154680D01*
X15328695Y-13154680D02*
X15319171Y-13173727D01*
X15319171Y-13173727D02*
X15309647Y-13183251D01*
X15309647Y-13183251D02*
X15290600Y-13192775D01*
X15290600Y-13192775D02*
X15271552Y-13192775D01*
X15271552Y-13192775D02*
X15252504Y-13183251D01*
X15252504Y-13183251D02*
X15242980Y-13173727D01*
X15242980Y-13173727D02*
X15233457Y-13154680D01*
X15233457Y-13154680D02*
X15223933Y-13116584D01*
X15223933Y-13116584D02*
X15223933Y-13068965D01*
X15223933Y-13068965D02*
X15233457Y-13030870D01*
X15233457Y-13030870D02*
X15242980Y-13011822D01*
X15242980Y-13011822D02*
X15252504Y-13002299D01*
X15252504Y-13002299D02*
X15271552Y-12992775D01*
X15423933Y-13173727D02*
X15433457Y-13183251D01*
X15433457Y-13183251D02*
X15423933Y-13192775D01*
X15423933Y-13192775D02*
X15414409Y-13183251D01*
X15414409Y-13183251D02*
X15423933Y-13173727D01*
X15423933Y-13173727D02*
X15423933Y-13192775D01*
X15557266Y-12992775D02*
X15576314Y-12992775D01*
X15576314Y-12992775D02*
X15595361Y-13002299D01*
X15595361Y-13002299D02*
X15604885Y-13011822D01*
X15604885Y-13011822D02*
X15614409Y-13030870D01*
X15614409Y-13030870D02*
X15623933Y-13068965D01*
X15623933Y-13068965D02*
X15623933Y-13116584D01*
X15623933Y-13116584D02*
X15614409Y-13154680D01*
X15614409Y-13154680D02*
X15604885Y-13173727D01*
X15604885Y-13173727D02*
X15595361Y-13183251D01*
X15595361Y-13183251D02*
X15576314Y-13192775D01*
X15576314Y-13192775D02*
X15557266Y-13192775D01*
X15557266Y-13192775D02*
X15538219Y-13183251D01*
X15538219Y-13183251D02*
X15528695Y-13173727D01*
X15528695Y-13173727D02*
X15519171Y-13154680D01*
X15519171Y-13154680D02*
X15509647Y-13116584D01*
X15509647Y-13116584D02*
X15509647Y-13068965D01*
X15509647Y-13068965D02*
X15519171Y-13030870D01*
X15519171Y-13030870D02*
X15528695Y-13011822D01*
X15528695Y-13011822D02*
X15538219Y-13002299D01*
X15538219Y-13002299D02*
X15557266Y-12992775D01*
X15690600Y-12992775D02*
X15814409Y-12992775D01*
X15814409Y-12992775D02*
X15747742Y-13068965D01*
X15747742Y-13068965D02*
X15776314Y-13068965D01*
X15776314Y-13068965D02*
X15795361Y-13078489D01*
X15795361Y-13078489D02*
X15804885Y-13088013D01*
X15804885Y-13088013D02*
X15814409Y-13107061D01*
X15814409Y-13107061D02*
X15814409Y-13154680D01*
X15814409Y-13154680D02*
X15804885Y-13173727D01*
X15804885Y-13173727D02*
X15795361Y-13183251D01*
X15795361Y-13183251D02*
X15776314Y-13192775D01*
X15776314Y-13192775D02*
X15719171Y-13192775D01*
X15719171Y-13192775D02*
X15700123Y-13183251D01*
X15700123Y-13183251D02*
X15690600Y-13173727D01*
X15995361Y-12992775D02*
X15900123Y-12992775D01*
X15900123Y-12992775D02*
X15890600Y-13088013D01*
X15890600Y-13088013D02*
X15900123Y-13078489D01*
X15900123Y-13078489D02*
X15919171Y-13068965D01*
X15919171Y-13068965D02*
X15966790Y-13068965D01*
X15966790Y-13068965D02*
X15985838Y-13078489D01*
X15985838Y-13078489D02*
X15995361Y-13088013D01*
X15995361Y-13088013D02*
X16004885Y-13107061D01*
X16004885Y-13107061D02*
X16004885Y-13154680D01*
X16004885Y-13154680D02*
X15995361Y-13173727D01*
X15995361Y-13173727D02*
X15985838Y-13183251D01*
X15985838Y-13183251D02*
X15966790Y-13192775D01*
X15966790Y-13192775D02*
X15919171Y-13192775D01*
X15919171Y-13192775D02*
X15900123Y-13183251D01*
X15900123Y-13183251D02*
X15890600Y-13173727D01*
X16128695Y-12992775D02*
X16147742Y-12992775D01*
X16147742Y-12992775D02*
X16166790Y-13002299D01*
X16166790Y-13002299D02*
X16176314Y-13011822D01*
X16176314Y-13011822D02*
X16185838Y-13030870D01*
X16185838Y-13030870D02*
X16195361Y-13068965D01*
X16195361Y-13068965D02*
X16195361Y-13116584D01*
X16195361Y-13116584D02*
X16185838Y-13154680D01*
X16185838Y-13154680D02*
X16176314Y-13173727D01*
X16176314Y-13173727D02*
X16166790Y-13183251D01*
X16166790Y-13183251D02*
X16147742Y-13192775D01*
X16147742Y-13192775D02*
X16128695Y-13192775D01*
X16128695Y-13192775D02*
X16109647Y-13183251D01*
X16109647Y-13183251D02*
X16100123Y-13173727D01*
X16100123Y-13173727D02*
X16090600Y-13154680D01*
X16090600Y-13154680D02*
X16081076Y-13116584D01*
X16081076Y-13116584D02*
X16081076Y-13068965D01*
X16081076Y-13068965D02*
X16090600Y-13030870D01*
X16090600Y-13030870D02*
X16100123Y-13011822D01*
X16100123Y-13011822D02*
X16109647Y-13002299D01*
X16109647Y-13002299D02*
X16128695Y-12992775D01*
X16271552Y-12992775D02*
X16271552Y-13030870D01*
X16347742Y-12992775D02*
X16347742Y-13030870D01*
X16642981Y-13268965D02*
X16633457Y-13259441D01*
X16633457Y-13259441D02*
X16614409Y-13230870D01*
X16614409Y-13230870D02*
X16604885Y-13211822D01*
X16604885Y-13211822D02*
X16595362Y-13183251D01*
X16595362Y-13183251D02*
X16585838Y-13135632D01*
X16585838Y-13135632D02*
X16585838Y-13097537D01*
X16585838Y-13097537D02*
X16595362Y-13049918D01*
X16595362Y-13049918D02*
X16604885Y-13021346D01*
X16604885Y-13021346D02*
X16614409Y-13002299D01*
X16614409Y-13002299D02*
X16633457Y-12973727D01*
X16633457Y-12973727D02*
X16642981Y-12964203D01*
X16823933Y-13192775D02*
X16709647Y-13192775D01*
X16766790Y-13192775D02*
X16766790Y-12992775D01*
X16766790Y-12992775D02*
X16747742Y-13021346D01*
X16747742Y-13021346D02*
X16728695Y-13040394D01*
X16728695Y-13040394D02*
X16709647Y-13049918D01*
X16995362Y-13059441D02*
X16995362Y-13192775D01*
X16947743Y-12983251D02*
X16900124Y-13126108D01*
X16900124Y-13126108D02*
X17023933Y-13126108D01*
X17252505Y-13192775D02*
X17252505Y-12992775D01*
X17338219Y-13192775D02*
X17338219Y-13088013D01*
X17338219Y-13088013D02*
X17328695Y-13068965D01*
X17328695Y-13068965D02*
X17309647Y-13059441D01*
X17309647Y-13059441D02*
X17281076Y-13059441D01*
X17281076Y-13059441D02*
X17262028Y-13068965D01*
X17262028Y-13068965D02*
X17252505Y-13078489D01*
X17462028Y-13192775D02*
X17442981Y-13183251D01*
X17442981Y-13183251D02*
X17433457Y-13173727D01*
X17433457Y-13173727D02*
X17423933Y-13154680D01*
X17423933Y-13154680D02*
X17423933Y-13097537D01*
X17423933Y-13097537D02*
X17433457Y-13078489D01*
X17433457Y-13078489D02*
X17442981Y-13068965D01*
X17442981Y-13068965D02*
X17462028Y-13059441D01*
X17462028Y-13059441D02*
X17490600Y-13059441D01*
X17490600Y-13059441D02*
X17509647Y-13068965D01*
X17509647Y-13068965D02*
X17519171Y-13078489D01*
X17519171Y-13078489D02*
X17528695Y-13097537D01*
X17528695Y-13097537D02*
X17528695Y-13154680D01*
X17528695Y-13154680D02*
X17519171Y-13173727D01*
X17519171Y-13173727D02*
X17509647Y-13183251D01*
X17509647Y-13183251D02*
X17490600Y-13192775D01*
X17490600Y-13192775D02*
X17462028Y-13192775D01*
X17642981Y-13192775D02*
X17623933Y-13183251D01*
X17623933Y-13183251D02*
X17614409Y-13164203D01*
X17614409Y-13164203D02*
X17614409Y-12992775D01*
X17795362Y-13183251D02*
X17776314Y-13192775D01*
X17776314Y-13192775D02*
X17738219Y-13192775D01*
X17738219Y-13192775D02*
X17719171Y-13183251D01*
X17719171Y-13183251D02*
X17709647Y-13164203D01*
X17709647Y-13164203D02*
X17709647Y-13088013D01*
X17709647Y-13088013D02*
X17719171Y-13068965D01*
X17719171Y-13068965D02*
X17738219Y-13059441D01*
X17738219Y-13059441D02*
X17776314Y-13059441D01*
X17776314Y-13059441D02*
X17795362Y-13068965D01*
X17795362Y-13068965D02*
X17804886Y-13088013D01*
X17804886Y-13088013D02*
X17804886Y-13107061D01*
X17804886Y-13107061D02*
X17709647Y-13126108D01*
X17881076Y-13183251D02*
X17900124Y-13192775D01*
X17900124Y-13192775D02*
X17938219Y-13192775D01*
X17938219Y-13192775D02*
X17957267Y-13183251D01*
X17957267Y-13183251D02*
X17966790Y-13164203D01*
X17966790Y-13164203D02*
X17966790Y-13154680D01*
X17966790Y-13154680D02*
X17957267Y-13135632D01*
X17957267Y-13135632D02*
X17938219Y-13126108D01*
X17938219Y-13126108D02*
X17909647Y-13126108D01*
X17909647Y-13126108D02*
X17890600Y-13116584D01*
X17890600Y-13116584D02*
X17881076Y-13097537D01*
X17881076Y-13097537D02*
X17881076Y-13088013D01*
X17881076Y-13088013D02*
X17890600Y-13068965D01*
X17890600Y-13068965D02*
X17909647Y-13059441D01*
X17909647Y-13059441D02*
X17938219Y-13059441D01*
X17938219Y-13059441D02*
X17957267Y-13068965D01*
X18033457Y-13268965D02*
X18042981Y-13259441D01*
X18042981Y-13259441D02*
X18062028Y-13230870D01*
X18062028Y-13230870D02*
X18071552Y-13211822D01*
X18071552Y-13211822D02*
X18081076Y-13183251D01*
X18081076Y-13183251D02*
X18090600Y-13135632D01*
X18090600Y-13135632D02*
X18090600Y-13097537D01*
X18090600Y-13097537D02*
X18081076Y-13049918D01*
X18081076Y-13049918D02*
X18071552Y-13021346D01*
X18071552Y-13021346D02*
X18062028Y-13002299D01*
X18062028Y-13002299D02*
X18042981Y-12973727D01*
X18042981Y-12973727D02*
X18033457Y-12964203D01*
D12*
X13017918Y-13315291D02*
X13017918Y-13415291D01*
X12967918Y-13365291D02*
X13067918Y-13365291D01*
D11*
X13433456Y-13456775D02*
X13319171Y-13456775D01*
X13376314Y-13456775D02*
X13376314Y-13256775D01*
X13376314Y-13256775D02*
X13357266Y-13285346D01*
X13357266Y-13285346D02*
X13338218Y-13304394D01*
X13338218Y-13304394D02*
X13319171Y-13313918D01*
X13519171Y-13437727D02*
X13528695Y-13447251D01*
X13528695Y-13447251D02*
X13519171Y-13456775D01*
X13519171Y-13456775D02*
X13509647Y-13447251D01*
X13509647Y-13447251D02*
X13519171Y-13437727D01*
X13519171Y-13437727D02*
X13519171Y-13456775D01*
X13652504Y-13256775D02*
X13671552Y-13256775D01*
X13671552Y-13256775D02*
X13690599Y-13266299D01*
X13690599Y-13266299D02*
X13700123Y-13275822D01*
X13700123Y-13275822D02*
X13709647Y-13294870D01*
X13709647Y-13294870D02*
X13719171Y-13332965D01*
X13719171Y-13332965D02*
X13719171Y-13380584D01*
X13719171Y-13380584D02*
X13709647Y-13418680D01*
X13709647Y-13418680D02*
X13700123Y-13437727D01*
X13700123Y-13437727D02*
X13690599Y-13447251D01*
X13690599Y-13447251D02*
X13671552Y-13456775D01*
X13671552Y-13456775D02*
X13652504Y-13456775D01*
X13652504Y-13456775D02*
X13633456Y-13447251D01*
X13633456Y-13447251D02*
X13623933Y-13437727D01*
X13623933Y-13437727D02*
X13614409Y-13418680D01*
X13614409Y-13418680D02*
X13604885Y-13380584D01*
X13604885Y-13380584D02*
X13604885Y-13332965D01*
X13604885Y-13332965D02*
X13614409Y-13294870D01*
X13614409Y-13294870D02*
X13623933Y-13275822D01*
X13623933Y-13275822D02*
X13633456Y-13266299D01*
X13633456Y-13266299D02*
X13652504Y-13256775D01*
X13842980Y-13256775D02*
X13862028Y-13256775D01*
X13862028Y-13256775D02*
X13881076Y-13266299D01*
X13881076Y-13266299D02*
X13890599Y-13275822D01*
X13890599Y-13275822D02*
X13900123Y-13294870D01*
X13900123Y-13294870D02*
X13909647Y-13332965D01*
X13909647Y-13332965D02*
X13909647Y-13380584D01*
X13909647Y-13380584D02*
X13900123Y-13418680D01*
X13900123Y-13418680D02*
X13890599Y-13437727D01*
X13890599Y-13437727D02*
X13881076Y-13447251D01*
X13881076Y-13447251D02*
X13862028Y-13456775D01*
X13862028Y-13456775D02*
X13842980Y-13456775D01*
X13842980Y-13456775D02*
X13823933Y-13447251D01*
X13823933Y-13447251D02*
X13814409Y-13437727D01*
X13814409Y-13437727D02*
X13804885Y-13418680D01*
X13804885Y-13418680D02*
X13795361Y-13380584D01*
X13795361Y-13380584D02*
X13795361Y-13332965D01*
X13795361Y-13332965D02*
X13804885Y-13294870D01*
X13804885Y-13294870D02*
X13814409Y-13275822D01*
X13814409Y-13275822D02*
X13823933Y-13266299D01*
X13823933Y-13266299D02*
X13842980Y-13256775D01*
X14033456Y-13256775D02*
X14052504Y-13256775D01*
X14052504Y-13256775D02*
X14071552Y-13266299D01*
X14071552Y-13266299D02*
X14081076Y-13275822D01*
X14081076Y-13275822D02*
X14090599Y-13294870D01*
X14090599Y-13294870D02*
X14100123Y-13332965D01*
X14100123Y-13332965D02*
X14100123Y-13380584D01*
X14100123Y-13380584D02*
X14090599Y-13418680D01*
X14090599Y-13418680D02*
X14081076Y-13437727D01*
X14081076Y-13437727D02*
X14071552Y-13447251D01*
X14071552Y-13447251D02*
X14052504Y-13456775D01*
X14052504Y-13456775D02*
X14033456Y-13456775D01*
X14033456Y-13456775D02*
X14014409Y-13447251D01*
X14014409Y-13447251D02*
X14004885Y-13437727D01*
X14004885Y-13437727D02*
X13995361Y-13418680D01*
X13995361Y-13418680D02*
X13985837Y-13380584D01*
X13985837Y-13380584D02*
X13985837Y-13332965D01*
X13985837Y-13332965D02*
X13995361Y-13294870D01*
X13995361Y-13294870D02*
X14004885Y-13275822D01*
X14004885Y-13275822D02*
X14014409Y-13266299D01*
X14014409Y-13266299D02*
X14033456Y-13256775D01*
X14185837Y-13456775D02*
X14185837Y-13323441D01*
X14185837Y-13342489D02*
X14195361Y-13332965D01*
X14195361Y-13332965D02*
X14214409Y-13323441D01*
X14214409Y-13323441D02*
X14242980Y-13323441D01*
X14242980Y-13323441D02*
X14262028Y-13332965D01*
X14262028Y-13332965D02*
X14271552Y-13352013D01*
X14271552Y-13352013D02*
X14271552Y-13456775D01*
X14271552Y-13352013D02*
X14281076Y-13332965D01*
X14281076Y-13332965D02*
X14300123Y-13323441D01*
X14300123Y-13323441D02*
X14328695Y-13323441D01*
X14328695Y-13323441D02*
X14347742Y-13332965D01*
X14347742Y-13332965D02*
X14357266Y-13352013D01*
X14357266Y-13352013D02*
X14357266Y-13456775D01*
X14452504Y-13456775D02*
X14452504Y-13323441D01*
X14452504Y-13342489D02*
X14462028Y-13332965D01*
X14462028Y-13332965D02*
X14481076Y-13323441D01*
X14481076Y-13323441D02*
X14509647Y-13323441D01*
X14509647Y-13323441D02*
X14528695Y-13332965D01*
X14528695Y-13332965D02*
X14538218Y-13352013D01*
X14538218Y-13352013D02*
X14538218Y-13456775D01*
X14538218Y-13352013D02*
X14547742Y-13332965D01*
X14547742Y-13332965D02*
X14566790Y-13323441D01*
X14566790Y-13323441D02*
X14595361Y-13323441D01*
X14595361Y-13323441D02*
X14614409Y-13332965D01*
X14614409Y-13332965D02*
X14623933Y-13352013D01*
X14623933Y-13352013D02*
X14623933Y-13456775D01*
X15014409Y-13247251D02*
X14842980Y-13504394D01*
X15271552Y-13256775D02*
X15290600Y-13256775D01*
X15290600Y-13256775D02*
X15309647Y-13266299D01*
X15309647Y-13266299D02*
X15319171Y-13275822D01*
X15319171Y-13275822D02*
X15328695Y-13294870D01*
X15328695Y-13294870D02*
X15338219Y-13332965D01*
X15338219Y-13332965D02*
X15338219Y-13380584D01*
X15338219Y-13380584D02*
X15328695Y-13418680D01*
X15328695Y-13418680D02*
X15319171Y-13437727D01*
X15319171Y-13437727D02*
X15309647Y-13447251D01*
X15309647Y-13447251D02*
X15290600Y-13456775D01*
X15290600Y-13456775D02*
X15271552Y-13456775D01*
X15271552Y-13456775D02*
X15252504Y-13447251D01*
X15252504Y-13447251D02*
X15242980Y-13437727D01*
X15242980Y-13437727D02*
X15233457Y-13418680D01*
X15233457Y-13418680D02*
X15223933Y-13380584D01*
X15223933Y-13380584D02*
X15223933Y-13332965D01*
X15223933Y-13332965D02*
X15233457Y-13294870D01*
X15233457Y-13294870D02*
X15242980Y-13275822D01*
X15242980Y-13275822D02*
X15252504Y-13266299D01*
X15252504Y-13266299D02*
X15271552Y-13256775D01*
X15423933Y-13437727D02*
X15433457Y-13447251D01*
X15433457Y-13447251D02*
X15423933Y-13456775D01*
X15423933Y-13456775D02*
X15414409Y-13447251D01*
X15414409Y-13447251D02*
X15423933Y-13437727D01*
X15423933Y-13437727D02*
X15423933Y-13456775D01*
X15557266Y-13256775D02*
X15576314Y-13256775D01*
X15576314Y-13256775D02*
X15595361Y-13266299D01*
X15595361Y-13266299D02*
X15604885Y-13275822D01*
X15604885Y-13275822D02*
X15614409Y-13294870D01*
X15614409Y-13294870D02*
X15623933Y-13332965D01*
X15623933Y-13332965D02*
X15623933Y-13380584D01*
X15623933Y-13380584D02*
X15614409Y-13418680D01*
X15614409Y-13418680D02*
X15604885Y-13437727D01*
X15604885Y-13437727D02*
X15595361Y-13447251D01*
X15595361Y-13447251D02*
X15576314Y-13456775D01*
X15576314Y-13456775D02*
X15557266Y-13456775D01*
X15557266Y-13456775D02*
X15538219Y-13447251D01*
X15538219Y-13447251D02*
X15528695Y-13437727D01*
X15528695Y-13437727D02*
X15519171Y-13418680D01*
X15519171Y-13418680D02*
X15509647Y-13380584D01*
X15509647Y-13380584D02*
X15509647Y-13332965D01*
X15509647Y-13332965D02*
X15519171Y-13294870D01*
X15519171Y-13294870D02*
X15528695Y-13275822D01*
X15528695Y-13275822D02*
X15538219Y-13266299D01*
X15538219Y-13266299D02*
X15557266Y-13256775D01*
X15690600Y-13256775D02*
X15814409Y-13256775D01*
X15814409Y-13256775D02*
X15747742Y-13332965D01*
X15747742Y-13332965D02*
X15776314Y-13332965D01*
X15776314Y-13332965D02*
X15795361Y-13342489D01*
X15795361Y-13342489D02*
X15804885Y-13352013D01*
X15804885Y-13352013D02*
X15814409Y-13371061D01*
X15814409Y-13371061D02*
X15814409Y-13418680D01*
X15814409Y-13418680D02*
X15804885Y-13437727D01*
X15804885Y-13437727D02*
X15795361Y-13447251D01*
X15795361Y-13447251D02*
X15776314Y-13456775D01*
X15776314Y-13456775D02*
X15719171Y-13456775D01*
X15719171Y-13456775D02*
X15700123Y-13447251D01*
X15700123Y-13447251D02*
X15690600Y-13437727D01*
X15909647Y-13456775D02*
X15947742Y-13456775D01*
X15947742Y-13456775D02*
X15966790Y-13447251D01*
X15966790Y-13447251D02*
X15976314Y-13437727D01*
X15976314Y-13437727D02*
X15995361Y-13409156D01*
X15995361Y-13409156D02*
X16004885Y-13371061D01*
X16004885Y-13371061D02*
X16004885Y-13294870D01*
X16004885Y-13294870D02*
X15995361Y-13275822D01*
X15995361Y-13275822D02*
X15985838Y-13266299D01*
X15985838Y-13266299D02*
X15966790Y-13256775D01*
X15966790Y-13256775D02*
X15928695Y-13256775D01*
X15928695Y-13256775D02*
X15909647Y-13266299D01*
X15909647Y-13266299D02*
X15900123Y-13275822D01*
X15900123Y-13275822D02*
X15890600Y-13294870D01*
X15890600Y-13294870D02*
X15890600Y-13342489D01*
X15890600Y-13342489D02*
X15900123Y-13361537D01*
X15900123Y-13361537D02*
X15909647Y-13371061D01*
X15909647Y-13371061D02*
X15928695Y-13380584D01*
X15928695Y-13380584D02*
X15966790Y-13380584D01*
X15966790Y-13380584D02*
X15985838Y-13371061D01*
X15985838Y-13371061D02*
X15995361Y-13361537D01*
X15995361Y-13361537D02*
X16004885Y-13342489D01*
X16176314Y-13323441D02*
X16176314Y-13456775D01*
X16128695Y-13247251D02*
X16081076Y-13390108D01*
X16081076Y-13390108D02*
X16204885Y-13390108D01*
X16271552Y-13256775D02*
X16271552Y-13294870D01*
X16347742Y-13256775D02*
X16347742Y-13294870D01*
X16642981Y-13532965D02*
X16633457Y-13523441D01*
X16633457Y-13523441D02*
X16614409Y-13494870D01*
X16614409Y-13494870D02*
X16604885Y-13475822D01*
X16604885Y-13475822D02*
X16595362Y-13447251D01*
X16595362Y-13447251D02*
X16585838Y-13399632D01*
X16585838Y-13399632D02*
X16585838Y-13361537D01*
X16585838Y-13361537D02*
X16595362Y-13313918D01*
X16595362Y-13313918D02*
X16604885Y-13285346D01*
X16604885Y-13285346D02*
X16614409Y-13266299D01*
X16614409Y-13266299D02*
X16633457Y-13237727D01*
X16633457Y-13237727D02*
X16642981Y-13228203D01*
X16804885Y-13323441D02*
X16804885Y-13456775D01*
X16757266Y-13247251D02*
X16709647Y-13390108D01*
X16709647Y-13390108D02*
X16833457Y-13390108D01*
X17062028Y-13456775D02*
X17062028Y-13256775D01*
X17147743Y-13456775D02*
X17147743Y-13352013D01*
X17147743Y-13352013D02*
X17138219Y-13332965D01*
X17138219Y-13332965D02*
X17119171Y-13323441D01*
X17119171Y-13323441D02*
X17090600Y-13323441D01*
X17090600Y-13323441D02*
X17071552Y-13332965D01*
X17071552Y-13332965D02*
X17062028Y-13342489D01*
X17271552Y-13456775D02*
X17252505Y-13447251D01*
X17252505Y-13447251D02*
X17242981Y-13437727D01*
X17242981Y-13437727D02*
X17233457Y-13418680D01*
X17233457Y-13418680D02*
X17233457Y-13361537D01*
X17233457Y-13361537D02*
X17242981Y-13342489D01*
X17242981Y-13342489D02*
X17252505Y-13332965D01*
X17252505Y-13332965D02*
X17271552Y-13323441D01*
X17271552Y-13323441D02*
X17300124Y-13323441D01*
X17300124Y-13323441D02*
X17319171Y-13332965D01*
X17319171Y-13332965D02*
X17328695Y-13342489D01*
X17328695Y-13342489D02*
X17338219Y-13361537D01*
X17338219Y-13361537D02*
X17338219Y-13418680D01*
X17338219Y-13418680D02*
X17328695Y-13437727D01*
X17328695Y-13437727D02*
X17319171Y-13447251D01*
X17319171Y-13447251D02*
X17300124Y-13456775D01*
X17300124Y-13456775D02*
X17271552Y-13456775D01*
X17452505Y-13456775D02*
X17433457Y-13447251D01*
X17433457Y-13447251D02*
X17423933Y-13428203D01*
X17423933Y-13428203D02*
X17423933Y-13256775D01*
X17604886Y-13447251D02*
X17585838Y-13456775D01*
X17585838Y-13456775D02*
X17547743Y-13456775D01*
X17547743Y-13456775D02*
X17528695Y-13447251D01*
X17528695Y-13447251D02*
X17519171Y-13428203D01*
X17519171Y-13428203D02*
X17519171Y-13352013D01*
X17519171Y-13352013D02*
X17528695Y-13332965D01*
X17528695Y-13332965D02*
X17547743Y-13323441D01*
X17547743Y-13323441D02*
X17585838Y-13323441D01*
X17585838Y-13323441D02*
X17604886Y-13332965D01*
X17604886Y-13332965D02*
X17614409Y-13352013D01*
X17614409Y-13352013D02*
X17614409Y-13371061D01*
X17614409Y-13371061D02*
X17519171Y-13390108D01*
X17690600Y-13447251D02*
X17709647Y-13456775D01*
X17709647Y-13456775D02*
X17747743Y-13456775D01*
X17747743Y-13456775D02*
X17766790Y-13447251D01*
X17766790Y-13447251D02*
X17776314Y-13428203D01*
X17776314Y-13428203D02*
X17776314Y-13418680D01*
X17776314Y-13418680D02*
X17766790Y-13399632D01*
X17766790Y-13399632D02*
X17747743Y-13390108D01*
X17747743Y-13390108D02*
X17719171Y-13390108D01*
X17719171Y-13390108D02*
X17700124Y-13380584D01*
X17700124Y-13380584D02*
X17690600Y-13361537D01*
X17690600Y-13361537D02*
X17690600Y-13352013D01*
X17690600Y-13352013D02*
X17700124Y-13332965D01*
X17700124Y-13332965D02*
X17719171Y-13323441D01*
X17719171Y-13323441D02*
X17747743Y-13323441D01*
X17747743Y-13323441D02*
X17766790Y-13332965D01*
X17842981Y-13532965D02*
X17852505Y-13523441D01*
X17852505Y-13523441D02*
X17871552Y-13494870D01*
X17871552Y-13494870D02*
X17881076Y-13475822D01*
X17881076Y-13475822D02*
X17890600Y-13447251D01*
X17890600Y-13447251D02*
X17900124Y-13399632D01*
X17900124Y-13399632D02*
X17900124Y-13361537D01*
X17900124Y-13361537D02*
X17890600Y-13313918D01*
X17890600Y-13313918D02*
X17881076Y-13285346D01*
X17881076Y-13285346D02*
X17871552Y-13266299D01*
X17871552Y-13266299D02*
X17852505Y-13237727D01*
X17852505Y-13237727D02*
X17842981Y-13228203D01*
M02*
