G04 #@! TF.GenerationSoftware,KiCad,Pcbnew,9.0.2*
G04 #@! TF.CreationDate,2025-06-11T04:48:02-04:00*
G04 #@! TF.ProjectId,HackCharm,4861636b-4368-4617-926d-2e6b69636164,rev?*
G04 #@! TF.SameCoordinates,Original*
G04 #@! TF.FileFunction,Copper,L1,Top*
G04 #@! TF.FilePolarity,Positive*
%FSLAX46Y46*%
G04 Gerber Fmt 4.6, Leading zero omitted, Abs format (unit mm)*
G04 Created by KiCad (PCBNEW 9.0.2) date 2025-06-11 04:48:02*
%MOMM*%
%LPD*%
G01*
G04 APERTURE LIST*
G04 Aperture macros list*
%AMRoundRect*
0 Rectangle with rounded corners*
0 $1 Rounding radius*
0 $2 $3 $4 $5 $6 $7 $8 $9 X,Y pos of 4 corners*
0 Add a 4 corners polygon primitive as box body*
4,1,4,$2,$3,$4,$5,$6,$7,$8,$9,$2,$3,0*
0 Add four circle primitives for the rounded corners*
1,1,$1+$1,$2,$3*
1,1,$1+$1,$4,$5*
1,1,$1+$1,$6,$7*
1,1,$1+$1,$8,$9*
0 Add four rect primitives between the rounded corners*
20,1,$1+$1,$2,$3,$4,$5,0*
20,1,$1+$1,$4,$5,$6,$7,0*
20,1,$1+$1,$6,$7,$8,$9,0*
20,1,$1+$1,$8,$9,$2,$3,0*%
G04 Aperture macros list end*
G04 #@! TA.AperFunction,ComponentPad*
%ADD10R,1.524000X1.524000*%
G04 #@! TD*
G04 #@! TA.AperFunction,ComponentPad*
%ADD11C,1.524000*%
G04 #@! TD*
G04 #@! TA.AperFunction,SMDPad,CuDef*
%ADD12RoundRect,0.152400X1.063600X0.609600X-1.063600X0.609600X-1.063600X-0.609600X1.063600X-0.609600X0*%
G04 #@! TD*
G04 #@! TA.AperFunction,SMDPad,CuDef*
%ADD13RoundRect,0.152400X-1.063600X-0.609600X1.063600X-0.609600X1.063600X0.609600X-1.063600X0.609600X0*%
G04 #@! TD*
G04 #@! TA.AperFunction,SMDPad,CuDef*
%ADD14R,1.800000X1.350000*%
G04 #@! TD*
G04 #@! TA.AperFunction,ComponentPad*
%ADD15R,1.700000X1.700000*%
G04 #@! TD*
G04 #@! TA.AperFunction,ComponentPad*
%ADD16C,1.700000*%
G04 #@! TD*
G04 #@! TA.AperFunction,Conductor*
%ADD17C,0.200000*%
G04 #@! TD*
G04 APERTURE END LIST*
D10*
G04 #@! TO.P,U2,1,VIN*
G04 #@! TO.N,+3.3V*
X144618000Y-108320000D03*
D11*
G04 #@! TO.P,U2,2,GND*
G04 #@! TO.N,GND*
X147158000Y-108320000D03*
G04 #@! TO.P,U2,3,SCLK*
G04 #@! TO.N,Net-(U1-GPIO7{slash}D8{slash}A8{slash}SCK)*
X149698000Y-108320000D03*
G04 #@! TO.P,U2,4,MOSI*
G04 #@! TO.N,Net-(U1-GPIO9{slash}D10{slash}A10{slash}MOSI)*
X152238000Y-108320000D03*
G04 #@! TO.P,U2,5,MISO*
G04 #@! TO.N,Net-(U1-GPIO8{slash}D9{slash}A9{slash}MISO)*
X154778000Y-108320000D03*
G04 #@! TO.P,U2,6,CS*
G04 #@! TO.N,Net-(U1-U0RXD{slash}D7{slash}RX)*
X157318000Y-108320000D03*
G04 #@! TO.P,U2,7,INT_2*
G04 #@! TO.N,unconnected-(U2-INT_2-Pad7)*
X159858000Y-108320000D03*
G04 #@! TO.P,U2,8,INT_1*
G04 #@! TO.N,Net-(U1-GPIO1{slash}D0{slash}A0)*
X162398000Y-108320000D03*
G04 #@! TD*
D12*
G04 #@! TO.P,U1,1,GPIO1/D0/A0*
G04 #@! TO.N,Net-(U1-GPIO1{slash}D0{slash}A0)*
X144645000Y-80798500D03*
D11*
X145480000Y-80798500D03*
D12*
G04 #@! TO.P,U1,2,GPIO2/DA/A1*
G04 #@! TO.N,Net-(U1-GPIO2{slash}DA{slash}A1)*
X144645000Y-83338500D03*
D11*
X145480000Y-83338500D03*
D12*
G04 #@! TO.P,U1,3,GPIO3/D2/A2*
G04 #@! TO.N,unconnected-(U1-GPIO3{slash}D2{slash}A2-Pad3)_1*
X144645000Y-85878500D03*
D11*
G04 #@! TO.N,unconnected-(U1-GPIO3{slash}D2{slash}A2-Pad3)*
X145480000Y-85878500D03*
D12*
G04 #@! TO.P,U1,4,GPIO4/D3/A3*
G04 #@! TO.N,unconnected-(U1-GPIO4{slash}D3{slash}A3-Pad4)_1*
X144645000Y-88418500D03*
D11*
G04 #@! TO.N,unconnected-(U1-GPIO4{slash}D3{slash}A3-Pad4)*
X145480000Y-88418500D03*
D12*
G04 #@! TO.P,U1,5,GPIO5/D4/I2C_SDA*
G04 #@! TO.N,Net-(J1-Pin_3)*
X144645000Y-90958500D03*
D11*
X145480000Y-90958500D03*
D12*
G04 #@! TO.P,U1,6,GPIO9/D5/I2C_SCL*
G04 #@! TO.N,Net-(J1-Pin_2)*
X144645000Y-93498500D03*
D11*
X145480000Y-93498500D03*
D12*
G04 #@! TO.P,U1,7,U0TXD/D6/TX*
G04 #@! TO.N,unconnected-(U1-U0TXD{slash}D6{slash}TX-Pad7)*
X144645000Y-96038500D03*
D11*
G04 #@! TO.N,unconnected-(U1-U0TXD{slash}D6{slash}TX-Pad7)_1*
X145480000Y-96038500D03*
G04 #@! TO.P,U1,8,U0RXD/D7/RX*
G04 #@! TO.N,Net-(U1-U0RXD{slash}D7{slash}RX)*
X160720000Y-96038500D03*
D13*
X161555000Y-96038500D03*
D11*
G04 #@! TO.P,U1,9,GPIO7/D8/A8/SCK*
G04 #@! TO.N,Net-(U1-GPIO7{slash}D8{slash}A8{slash}SCK)*
X160720000Y-93498500D03*
D13*
X161555000Y-93498500D03*
D11*
G04 #@! TO.P,U1,10,GPIO8/D9/A9/MISO*
G04 #@! TO.N,Net-(U1-GPIO8{slash}D9{slash}A9{slash}MISO)*
X160720000Y-90958500D03*
D13*
X161555000Y-90958500D03*
D11*
G04 #@! TO.P,U1,11,GPIO9/D10/A10/MOSI*
G04 #@! TO.N,Net-(U1-GPIO9{slash}D10{slash}A10{slash}MOSI)*
X160720000Y-88418500D03*
D13*
X161555000Y-88418500D03*
D11*
G04 #@! TO.P,U1,12,VCC_3V3*
G04 #@! TO.N,+3.3V*
X160720000Y-85878500D03*
D13*
X161555000Y-85878500D03*
D11*
G04 #@! TO.P,U1,13,GND*
G04 #@! TO.N,GND*
X160720000Y-83338500D03*
D13*
X161555000Y-83338500D03*
D11*
G04 #@! TO.P,U1,14,VBUS*
G04 #@! TO.N,unconnected-(U1-VBUS-Pad14)_1*
X160720000Y-80798500D03*
D13*
G04 #@! TO.N,unconnected-(U1-VBUS-Pad14)*
X161555000Y-80798500D03*
G04 #@! TD*
D14*
G04 #@! TO.P,SW1,1,1*
G04 #@! TO.N,GND*
X138900000Y-90575000D03*
G04 #@! TO.P,SW1,2,2*
G04 #@! TO.N,Net-(U1-GPIO2{slash}DA{slash}A1)*
X138900000Y-86425000D03*
G04 #@! TD*
D15*
G04 #@! TO.P,J1,1,Pin_1*
G04 #@! TO.N,GND*
X166600000Y-102450000D03*
D16*
G04 #@! TO.P,J1,2,Pin_2*
G04 #@! TO.N,Net-(J1-Pin_2)*
X166600000Y-99910000D03*
G04 #@! TO.P,J1,3,Pin_3*
G04 #@! TO.N,Net-(J1-Pin_3)*
X166600000Y-97370000D03*
G04 #@! TO.P,J1,4,Pin_4*
G04 #@! TO.N,+3.3V*
X166600000Y-94830000D03*
G04 #@! TD*
D17*
G04 #@! TO.N,Net-(J1-Pin_2)*
X143389374Y-89895500D02*
X145975900Y-89895500D01*
X168152000Y-98358000D02*
X166600000Y-99910000D01*
X151456900Y-84414500D02*
X162976726Y-84414500D01*
X143128000Y-90156874D02*
X143389374Y-89895500D01*
X145480000Y-93498500D02*
X144866374Y-93498500D01*
X145975900Y-89895500D02*
X151456900Y-84414500D01*
X162976726Y-84414500D02*
X168152000Y-89589774D01*
X143128000Y-91760126D02*
X143128000Y-90156874D01*
X168152000Y-89589774D02*
X168152000Y-98358000D01*
X144866374Y-93498500D02*
X143128000Y-91760126D01*
G04 #@! TO.N,Net-(J1-Pin_3)*
X151623000Y-84815500D02*
X162810626Y-84815500D01*
X167751000Y-96219000D02*
X166600000Y-97370000D01*
X162810626Y-84815500D02*
X167751000Y-89755874D01*
X145480000Y-90958500D02*
X151623000Y-84815500D01*
X167751000Y-89755874D02*
X167751000Y-96219000D01*
G04 #@! TO.N,+3.3V*
X161797630Y-85878500D02*
X166600000Y-90680870D01*
X166600000Y-90680870D02*
X166600000Y-94830000D01*
X160720000Y-85878500D02*
X161797630Y-85878500D01*
X160720000Y-85878500D02*
X144618000Y-101980500D01*
X144618000Y-101980500D02*
X144618000Y-108320000D01*
G04 #@! TO.N,Net-(U1-GPIO2{slash}DA{slash}A1)*
X141558500Y-86425000D02*
X144645000Y-83338500D01*
X138900000Y-86425000D02*
X141558500Y-86425000D01*
G04 #@! TO.N,Net-(U1-GPIO1{slash}D0{slash}A0)*
X163475630Y-108320000D02*
X162398000Y-108320000D01*
X168553000Y-103242630D02*
X163475630Y-108320000D01*
X162810626Y-82275500D02*
X168553000Y-88017874D01*
X146957000Y-82275500D02*
X162810626Y-82275500D01*
X168553000Y-88017874D02*
X168553000Y-103242630D01*
X145480000Y-80798500D02*
X146957000Y-82275500D01*
G04 #@! TO.N,Net-(U1-U0RXD{slash}D7{slash}RX)*
X160720000Y-96038500D02*
X160720000Y-104918000D01*
X160720000Y-104918000D02*
X157318000Y-108320000D01*
G04 #@! TO.N,Net-(U1-GPIO8{slash}D9{slash}A9{slash}MISO)*
X154778000Y-96900500D02*
X154778000Y-108320000D01*
X160720000Y-90958500D02*
X154778000Y-96900500D01*
G04 #@! TO.N,Net-(U1-GPIO9{slash}D10{slash}A10{slash}MOSI)*
X152238000Y-96900500D02*
X152238000Y-108320000D01*
X160720000Y-88418500D02*
X152238000Y-96900500D01*
G04 #@! TO.N,Net-(U1-GPIO7{slash}D8{slash}A8{slash}SCK)*
X150761000Y-109383000D02*
X149698000Y-108320000D01*
X155841000Y-108760310D02*
X155218310Y-109383000D01*
X155218310Y-109383000D02*
X150761000Y-109383000D01*
X155841000Y-98377500D02*
X155841000Y-108760310D01*
X160720000Y-93498500D02*
X155841000Y-98377500D01*
G04 #@! TD*
G04 #@! TA.AperFunction,Conductor*
G04 #@! TO.N,GND*
G36*
X153710303Y-77357403D02*
G01*
X154615732Y-77394853D01*
X154620810Y-77395168D01*
X155523926Y-77470002D01*
X155528940Y-77470521D01*
X156428218Y-77582617D01*
X156433289Y-77583355D01*
X157327124Y-77732509D01*
X157332132Y-77733452D01*
X158219045Y-77919419D01*
X158224012Y-77920568D01*
X158938479Y-78101496D01*
X159102481Y-78143027D01*
X159107424Y-78144388D01*
X159975955Y-78402961D01*
X159980785Y-78404509D01*
X160649777Y-78634173D01*
X160837882Y-78698750D01*
X160842694Y-78700514D01*
X161094969Y-78798951D01*
X161686892Y-79029921D01*
X161691590Y-79031866D01*
X162431195Y-79356288D01*
X162521460Y-79395882D01*
X162526110Y-79398037D01*
X163340225Y-79796033D01*
X163344782Y-79798379D01*
X164141725Y-80229663D01*
X164146182Y-80232195D01*
X164924643Y-80696057D01*
X164928987Y-80698769D01*
X164929000Y-80698777D01*
X165687624Y-81194411D01*
X165691855Y-81197303D01*
X166429350Y-81723863D01*
X166433408Y-81726888D01*
X166938540Y-82120048D01*
X167148544Y-82283501D01*
X167152522Y-82286732D01*
X167844003Y-82872386D01*
X167847845Y-82875778D01*
X168514563Y-83489535D01*
X168518261Y-83493084D01*
X169159004Y-84133827D01*
X169162553Y-84137525D01*
X169766430Y-84793511D01*
X169776310Y-84804243D01*
X169779702Y-84808085D01*
X170365356Y-85499566D01*
X170368587Y-85503544D01*
X170925194Y-86218672D01*
X170928225Y-86222738D01*
X171454785Y-86960233D01*
X171457677Y-86964464D01*
X171953317Y-87723097D01*
X171956031Y-87727445D01*
X172419893Y-88505906D01*
X172422425Y-88510363D01*
X172853709Y-89307306D01*
X172856055Y-89311863D01*
X173254051Y-90125978D01*
X173256206Y-90130628D01*
X173620214Y-90960480D01*
X173622175Y-90965215D01*
X173951574Y-91809394D01*
X173953338Y-91814206D01*
X174247571Y-92671278D01*
X174249135Y-92676159D01*
X174507700Y-93544665D01*
X174509061Y-93549607D01*
X174731517Y-94428063D01*
X174732672Y-94433056D01*
X174918633Y-95319942D01*
X174919581Y-95324979D01*
X175068732Y-96218798D01*
X175069471Y-96223870D01*
X175181562Y-97123106D01*
X175182090Y-97128204D01*
X175256918Y-98031259D01*
X175257236Y-98036375D01*
X175294685Y-98941785D01*
X175294791Y-98946909D01*
X175294791Y-99853090D01*
X175294685Y-99858214D01*
X175257236Y-100763624D01*
X175256918Y-100768740D01*
X175182090Y-101671795D01*
X175181562Y-101676893D01*
X175069471Y-102576129D01*
X175068732Y-102581201D01*
X174919581Y-103475020D01*
X174918633Y-103480057D01*
X174732672Y-104366943D01*
X174731517Y-104371936D01*
X174509061Y-105250392D01*
X174507700Y-105255334D01*
X174249135Y-106123840D01*
X174247571Y-106128721D01*
X173953338Y-106985793D01*
X173951574Y-106990605D01*
X173622175Y-107834784D01*
X173620214Y-107839519D01*
X173256206Y-108669371D01*
X173254051Y-108674021D01*
X172856055Y-109488136D01*
X172853709Y-109492693D01*
X172422425Y-110289636D01*
X172419893Y-110294093D01*
X171956031Y-111072554D01*
X171953317Y-111076902D01*
X171457677Y-111835535D01*
X171454785Y-111839766D01*
X170928225Y-112577261D01*
X170925176Y-112581350D01*
X170684975Y-112889960D01*
X170368587Y-113296455D01*
X170365356Y-113300433D01*
X169779702Y-113991914D01*
X169776310Y-113995756D01*
X169162553Y-114662474D01*
X169159004Y-114666172D01*
X168518261Y-115306915D01*
X168514563Y-115310464D01*
X167847845Y-115924221D01*
X167844003Y-115927613D01*
X167152522Y-116513267D01*
X167148544Y-116516498D01*
X166742049Y-116832886D01*
X166433439Y-117073087D01*
X166429350Y-117076136D01*
X165691855Y-117602696D01*
X165687624Y-117605588D01*
X164928991Y-118101228D01*
X164924643Y-118103942D01*
X164146182Y-118567804D01*
X164141725Y-118570336D01*
X163344782Y-119001620D01*
X163340225Y-119003966D01*
X162526110Y-119401962D01*
X162521460Y-119404117D01*
X161691608Y-119768125D01*
X161686873Y-119770086D01*
X160842694Y-120099485D01*
X160837882Y-120101249D01*
X159980810Y-120395482D01*
X159975929Y-120397046D01*
X159107423Y-120655611D01*
X159102481Y-120656972D01*
X158224025Y-120879428D01*
X158219032Y-120880583D01*
X157332146Y-121066544D01*
X157327109Y-121067492D01*
X156433290Y-121216643D01*
X156428218Y-121217382D01*
X155528982Y-121329473D01*
X155523884Y-121330001D01*
X154620829Y-121404829D01*
X154615713Y-121405147D01*
X153710304Y-121442596D01*
X153705180Y-121442702D01*
X152798998Y-121442702D01*
X152793874Y-121442596D01*
X151888464Y-121405147D01*
X151883348Y-121404829D01*
X150980293Y-121330001D01*
X150975195Y-121329473D01*
X150075959Y-121217382D01*
X150070887Y-121216643D01*
X149177068Y-121067492D01*
X149172031Y-121066544D01*
X148285145Y-120880583D01*
X148280152Y-120879428D01*
X147401696Y-120656972D01*
X147396754Y-120655611D01*
X146528248Y-120397046D01*
X146523367Y-120395482D01*
X145666295Y-120101249D01*
X145661483Y-120099485D01*
X144817304Y-119770086D01*
X144812569Y-119768125D01*
X143982717Y-119404117D01*
X143978067Y-119401962D01*
X143163952Y-119003966D01*
X143159395Y-119001620D01*
X142362452Y-118570336D01*
X142357995Y-118567804D01*
X141579534Y-118103942D01*
X141575186Y-118101228D01*
X140816553Y-117605588D01*
X140812322Y-117602696D01*
X140074827Y-117076136D01*
X140070761Y-117073105D01*
X139355633Y-116516498D01*
X139351655Y-116513267D01*
X138660174Y-115927613D01*
X138656332Y-115924221D01*
X137989614Y-115310464D01*
X137985916Y-115306915D01*
X137345173Y-114666172D01*
X137341624Y-114662474D01*
X136727867Y-113995756D01*
X136724475Y-113991914D01*
X136138821Y-113300433D01*
X136135590Y-113296455D01*
X136045454Y-113180648D01*
X135578977Y-112581319D01*
X135575952Y-112577261D01*
X135049392Y-111839766D01*
X135046500Y-111835535D01*
X134550860Y-111076902D01*
X134548146Y-111072554D01*
X134084284Y-110294093D01*
X134081752Y-110289636D01*
X133650468Y-109492693D01*
X133648122Y-109488136D01*
X133555513Y-109298702D01*
X133250126Y-108674021D01*
X133247971Y-108669371D01*
X133051792Y-108222129D01*
X132883955Y-107839501D01*
X132882002Y-107834784D01*
X132871357Y-107807504D01*
X132552603Y-106990605D01*
X132550839Y-106985793D01*
X132361127Y-106433181D01*
X132256598Y-106128696D01*
X132255050Y-106123866D01*
X131996477Y-105255334D01*
X131995116Y-105250392D01*
X131899257Y-104871856D01*
X131772657Y-104371923D01*
X131771505Y-104366943D01*
X131585541Y-103480043D01*
X131584596Y-103475020D01*
X131568392Y-103377917D01*
X131435444Y-102581200D01*
X131434706Y-102576129D01*
X131322610Y-101676851D01*
X131322091Y-101671837D01*
X131247257Y-100768721D01*
X131246941Y-100763624D01*
X131246353Y-100749414D01*
X131209493Y-99858214D01*
X131209387Y-99853090D01*
X131209387Y-98946909D01*
X131209493Y-98941785D01*
X131227476Y-98507004D01*
X131246942Y-98036353D01*
X131247259Y-98031259D01*
X131322091Y-97128157D01*
X131322610Y-97123153D01*
X131434706Y-96223863D01*
X131435445Y-96218798D01*
X131453578Y-96110136D01*
X131572546Y-95397186D01*
X143178500Y-95397186D01*
X143178500Y-96679813D01*
X143193441Y-96774150D01*
X143193442Y-96774153D01*
X143193443Y-96774155D01*
X143248254Y-96881728D01*
X143251385Y-96887872D01*
X143251388Y-96887876D01*
X143341623Y-96978111D01*
X143341627Y-96978114D01*
X143341629Y-96978116D01*
X143455345Y-97036057D01*
X143455347Y-97036057D01*
X143455349Y-97036058D01*
X143549687Y-97051000D01*
X143549692Y-97051000D01*
X145740313Y-97051000D01*
X145834650Y-97036058D01*
X145834650Y-97036057D01*
X145834655Y-97036057D01*
X145948371Y-96978116D01*
X146038616Y-96887871D01*
X146038617Y-96887868D01*
X146044758Y-96881728D01*
X146063544Y-96866311D01*
X146125431Y-96824960D01*
X146266460Y-96683931D01*
X146377266Y-96518099D01*
X146453590Y-96333835D01*
X146475969Y-96221328D01*
X146492500Y-96138225D01*
X146492500Y-95938774D01*
X146453591Y-95743170D01*
X146453590Y-95743169D01*
X146453590Y-95743165D01*
X146451975Y-95739265D01*
X146377269Y-95558907D01*
X146377262Y-95558894D01*
X146266460Y-95393069D01*
X146266457Y-95393065D01*
X146125434Y-95252042D01*
X146125430Y-95252039D01*
X146063547Y-95210690D01*
X146044757Y-95195269D01*
X145948376Y-95098888D01*
X145948372Y-95098885D01*
X145948371Y-95098884D01*
X145834655Y-95040943D01*
X145834653Y-95040942D01*
X145834650Y-95040941D01*
X145740313Y-95026000D01*
X145740308Y-95026000D01*
X143549692Y-95026000D01*
X143549687Y-95026000D01*
X143455349Y-95040941D01*
X143341627Y-95098885D01*
X143341623Y-95098888D01*
X143251388Y-95189123D01*
X143251385Y-95189127D01*
X143193441Y-95302849D01*
X143178500Y-95397186D01*
X131572546Y-95397186D01*
X131584598Y-95324964D01*
X131585539Y-95319965D01*
X131771510Y-94433033D01*
X131772654Y-94428087D01*
X131995118Y-93549596D01*
X131996477Y-93544665D01*
X132075245Y-93280088D01*
X132255054Y-92676119D01*
X132256593Y-92671317D01*
X132550841Y-91814198D01*
X132552603Y-91809394D01*
X132882016Y-90965179D01*
X132883948Y-90960515D01*
X133247979Y-90130610D01*
X133250126Y-90125978D01*
X133648133Y-89311841D01*
X133650456Y-89307328D01*
X134081758Y-88510350D01*
X134084284Y-88505906D01*
X134195789Y-88318777D01*
X134548161Y-87727420D01*
X134550844Y-87723122D01*
X135046510Y-86964448D01*
X135049392Y-86960233D01*
X135173288Y-86786706D01*
X135575973Y-86222709D01*
X135578977Y-86218680D01*
X135962974Y-85725321D01*
X137749500Y-85725321D01*
X137749500Y-87124678D01*
X137764032Y-87197735D01*
X137764033Y-87197739D01*
X137764034Y-87197740D01*
X137819399Y-87280601D01*
X137886348Y-87325334D01*
X137902260Y-87335966D01*
X137902264Y-87335967D01*
X137975321Y-87350499D01*
X137975324Y-87350500D01*
X137975326Y-87350500D01*
X139824676Y-87350500D01*
X139824677Y-87350499D01*
X139897740Y-87335966D01*
X139980601Y-87280601D01*
X140035966Y-87197740D01*
X140050500Y-87124674D01*
X140050500Y-86899500D01*
X140070185Y-86832461D01*
X140122989Y-86786706D01*
X140174500Y-86775500D01*
X141604642Y-86775500D01*
X141604644Y-86775500D01*
X141693788Y-86751614D01*
X141773712Y-86705470D01*
X142966819Y-85512363D01*
X143028142Y-85478878D01*
X143097834Y-85483862D01*
X143153767Y-85525734D01*
X143178184Y-85591198D01*
X143178500Y-85600044D01*
X143178500Y-86519813D01*
X143193441Y-86614150D01*
X143193442Y-86614153D01*
X143193443Y-86614155D01*
X143248254Y-86721728D01*
X143251385Y-86727872D01*
X143251388Y-86727876D01*
X143341623Y-86818111D01*
X143341627Y-86818114D01*
X143341629Y-86818116D01*
X143455345Y-86876057D01*
X143455347Y-86876057D01*
X143455349Y-86876058D01*
X143549687Y-86891000D01*
X143549692Y-86891000D01*
X145740313Y-86891000D01*
X145834650Y-86876058D01*
X145834650Y-86876057D01*
X145834655Y-86876057D01*
X145948371Y-86818116D01*
X146038616Y-86727871D01*
X146038617Y-86727868D01*
X146044758Y-86721728D01*
X146063542Y-86706312D01*
X146125431Y-86664960D01*
X146266460Y-86523931D01*
X146377266Y-86358099D01*
X146453590Y-86173835D01*
X146480574Y-86038181D01*
X146492500Y-85978225D01*
X146492500Y-85778774D01*
X146453591Y-85583170D01*
X146453590Y-85583169D01*
X146453590Y-85583165D01*
X146424955Y-85514033D01*
X146377269Y-85398907D01*
X146377262Y-85398894D01*
X146266460Y-85233069D01*
X146266457Y-85233065D01*
X146125434Y-85092042D01*
X146125430Y-85092039D01*
X146063547Y-85050690D01*
X146044757Y-85035269D01*
X145948376Y-84938888D01*
X145948372Y-84938885D01*
X145948371Y-84938884D01*
X145834655Y-84880943D01*
X145834653Y-84880942D01*
X145834650Y-84880941D01*
X145740313Y-84866000D01*
X145740308Y-84866000D01*
X143912544Y-84866000D01*
X143845505Y-84846315D01*
X143799750Y-84793511D01*
X143789806Y-84724353D01*
X143818831Y-84660797D01*
X143824863Y-84654319D01*
X144091863Y-84387319D01*
X144153186Y-84353834D01*
X144179544Y-84351000D01*
X145740313Y-84351000D01*
X145834650Y-84336058D01*
X145834650Y-84336057D01*
X145834655Y-84336057D01*
X145948371Y-84278116D01*
X146038616Y-84187871D01*
X146038617Y-84187868D01*
X146044758Y-84181728D01*
X146063542Y-84166312D01*
X146125431Y-84124960D01*
X146266460Y-83983931D01*
X146377266Y-83818099D01*
X146453590Y-83633835D01*
X146466322Y-83569824D01*
X146492500Y-83438225D01*
X146492500Y-83238774D01*
X146453591Y-83043170D01*
X146453590Y-83043169D01*
X146453590Y-83043165D01*
X146384257Y-82875778D01*
X146377269Y-82858907D01*
X146377262Y-82858894D01*
X146266460Y-82693069D01*
X146266457Y-82693065D01*
X146125434Y-82552042D01*
X146125430Y-82552039D01*
X146063547Y-82510690D01*
X146044757Y-82495269D01*
X145948376Y-82398888D01*
X145948372Y-82398885D01*
X145948371Y-82398884D01*
X145834655Y-82340943D01*
X145834653Y-82340942D01*
X145834650Y-82340941D01*
X145740313Y-82326000D01*
X145740308Y-82326000D01*
X143549692Y-82326000D01*
X143549687Y-82326000D01*
X143455349Y-82340941D01*
X143341627Y-82398885D01*
X143341623Y-82398888D01*
X143251388Y-82489123D01*
X143251385Y-82489127D01*
X143251384Y-82489129D01*
X143193817Y-82602112D01*
X143193441Y-82602849D01*
X143178500Y-82697186D01*
X143178500Y-83979813D01*
X143193441Y-84074152D01*
X143226875Y-84139770D01*
X143239771Y-84208439D01*
X143213494Y-84273180D01*
X143204071Y-84283745D01*
X141449637Y-86038181D01*
X141388314Y-86071666D01*
X141361956Y-86074500D01*
X140174500Y-86074500D01*
X140107461Y-86054815D01*
X140061706Y-86002011D01*
X140050500Y-85950500D01*
X140050500Y-85725323D01*
X140050499Y-85725321D01*
X140035967Y-85652264D01*
X140035966Y-85652260D01*
X140013978Y-85619352D01*
X139980601Y-85569399D01*
X139897740Y-85514034D01*
X139897739Y-85514033D01*
X139897735Y-85514032D01*
X139824677Y-85499500D01*
X139824674Y-85499500D01*
X137975326Y-85499500D01*
X137975323Y-85499500D01*
X137902264Y-85514032D01*
X137902260Y-85514033D01*
X137819399Y-85569399D01*
X137764033Y-85652260D01*
X137764032Y-85652264D01*
X137749500Y-85725321D01*
X135962974Y-85725321D01*
X136135611Y-85503518D01*
X136138821Y-85499566D01*
X136224090Y-85398889D01*
X136724500Y-84808056D01*
X136727842Y-84804271D01*
X137341647Y-84137500D01*
X137345149Y-84133851D01*
X137985940Y-83493060D01*
X137989589Y-83489558D01*
X138656360Y-82875753D01*
X138660145Y-82872411D01*
X139351658Y-82286729D01*
X139355607Y-82283522D01*
X140070791Y-81726871D01*
X140074798Y-81723884D01*
X140812322Y-81197303D01*
X140816537Y-81194421D01*
X141575211Y-80698755D01*
X141579509Y-80696072D01*
X142358007Y-80232188D01*
X142362439Y-80229669D01*
X143042101Y-79861855D01*
X143110428Y-79847261D01*
X143175800Y-79871924D01*
X143217461Y-79928014D01*
X143222183Y-79997724D01*
X143211603Y-80027204D01*
X143193441Y-80062848D01*
X143178500Y-80157186D01*
X143178500Y-81439813D01*
X143193441Y-81534150D01*
X143193442Y-81534153D01*
X143193443Y-81534155D01*
X143251384Y-81647871D01*
X143251385Y-81647872D01*
X143251388Y-81647876D01*
X143341623Y-81738111D01*
X143341627Y-81738114D01*
X143341629Y-81738116D01*
X143455345Y-81796057D01*
X143455347Y-81796057D01*
X143455349Y-81796058D01*
X143549687Y-81811000D01*
X143549692Y-81811000D01*
X145740313Y-81811000D01*
X145834652Y-81796058D01*
X145834652Y-81796057D01*
X145834655Y-81796057D01*
X145851908Y-81787265D01*
X145920576Y-81774368D01*
X145985317Y-81800642D01*
X145995886Y-81810068D01*
X146469320Y-82283501D01*
X146676531Y-82490712D01*
X146741788Y-82555969D01*
X146741791Y-82555970D01*
X146741794Y-82555973D01*
X146821706Y-82602111D01*
X146821707Y-82602111D01*
X146821712Y-82602114D01*
X146910856Y-82626000D01*
X162614082Y-82626000D01*
X162681121Y-82645685D01*
X162701763Y-82662319D01*
X168166181Y-88126737D01*
X168199666Y-88188060D01*
X168202500Y-88214418D01*
X168202500Y-88845230D01*
X168182815Y-88912269D01*
X168130011Y-88958024D01*
X168060853Y-88967968D01*
X167997297Y-88938943D01*
X167990819Y-88932911D01*
X163191939Y-84134031D01*
X163191934Y-84134027D01*
X163112016Y-84087887D01*
X163112015Y-84087886D01*
X163112014Y-84087886D01*
X163022870Y-84064000D01*
X151410756Y-84064000D01*
X151410754Y-84064000D01*
X151372857Y-84074154D01*
X151372857Y-84074155D01*
X151321612Y-84087886D01*
X151321611Y-84087886D01*
X151321609Y-84087887D01*
X151241691Y-84134027D01*
X151241686Y-84134031D01*
X146690916Y-88684801D01*
X146629593Y-88718286D01*
X146559901Y-88713302D01*
X146503968Y-88671430D01*
X146479551Y-88605966D01*
X146481617Y-88572931D01*
X146492500Y-88518223D01*
X146492500Y-88318777D01*
X146492500Y-88318774D01*
X146453591Y-88123170D01*
X146453590Y-88123169D01*
X146453590Y-88123165D01*
X146390865Y-87971732D01*
X146377269Y-87938907D01*
X146377262Y-87938894D01*
X146266460Y-87773069D01*
X146266457Y-87773065D01*
X146125434Y-87632042D01*
X146125430Y-87632039D01*
X146063547Y-87590690D01*
X146044757Y-87575269D01*
X145948376Y-87478888D01*
X145948372Y-87478885D01*
X145948371Y-87478884D01*
X145834655Y-87420943D01*
X145834653Y-87420942D01*
X145834650Y-87420941D01*
X145740313Y-87406000D01*
X145740308Y-87406000D01*
X143549692Y-87406000D01*
X143549687Y-87406000D01*
X143455349Y-87420941D01*
X143341627Y-87478885D01*
X143341623Y-87478888D01*
X143251388Y-87569123D01*
X143251385Y-87569127D01*
X143193441Y-87682849D01*
X143178500Y-87777186D01*
X143178500Y-89059813D01*
X143193441Y-89154150D01*
X143193442Y-89154153D01*
X143193443Y-89154155D01*
X143251384Y-89267871D01*
X143251385Y-89267872D01*
X143251388Y-89267876D01*
X143337489Y-89353977D01*
X143370974Y-89415300D01*
X143365990Y-89484992D01*
X143324118Y-89540925D01*
X143281905Y-89561431D01*
X143254086Y-89568886D01*
X143254085Y-89568886D01*
X143254083Y-89568887D01*
X143174165Y-89615027D01*
X143174160Y-89615031D01*
X142847529Y-89941662D01*
X142822562Y-89984909D01*
X142822560Y-89984911D01*
X142801388Y-90021580D01*
X142801387Y-90021583D01*
X142801386Y-90021585D01*
X142801386Y-90021586D01*
X142777500Y-90110730D01*
X142777500Y-91806270D01*
X142779627Y-91814206D01*
X142801386Y-91895413D01*
X142801387Y-91895416D01*
X142847527Y-91975334D01*
X142847531Y-91975339D01*
X143298671Y-92426479D01*
X143332156Y-92487802D01*
X143327172Y-92557494D01*
X143298671Y-92601841D01*
X143251388Y-92649123D01*
X143251385Y-92649127D01*
X143193441Y-92762849D01*
X143178500Y-92857186D01*
X143178500Y-94139813D01*
X143193441Y-94234150D01*
X143193442Y-94234153D01*
X143193443Y-94234155D01*
X143248254Y-94341728D01*
X143251385Y-94347872D01*
X143251388Y-94347876D01*
X143341623Y-94438111D01*
X143341627Y-94438114D01*
X143341629Y-94438116D01*
X143455345Y-94496057D01*
X143455347Y-94496057D01*
X143455349Y-94496058D01*
X143549687Y-94511000D01*
X143549692Y-94511000D01*
X145740313Y-94511000D01*
X145834650Y-94496058D01*
X145834650Y-94496057D01*
X145834655Y-94496057D01*
X145948371Y-94438116D01*
X146038616Y-94347871D01*
X146038617Y-94347868D01*
X146044758Y-94341728D01*
X146063542Y-94326312D01*
X146125431Y-94284960D01*
X146266460Y-94143931D01*
X146377266Y-93978099D01*
X146453590Y-93793835D01*
X146492500Y-93598223D01*
X146492500Y-93398777D01*
X146492500Y-93398774D01*
X146453591Y-93203170D01*
X146453590Y-93203169D01*
X146453590Y-93203165D01*
X146453588Y-93203160D01*
X146377269Y-93018907D01*
X146377262Y-93018894D01*
X146266460Y-92853069D01*
X146266457Y-92853065D01*
X146125434Y-92712042D01*
X146125430Y-92712039D01*
X146063547Y-92670690D01*
X146044757Y-92655269D01*
X145948376Y-92558888D01*
X145948372Y-92558885D01*
X145948371Y-92558884D01*
X145834655Y-92500943D01*
X145834653Y-92500942D01*
X145834650Y-92500941D01*
X145740313Y-92486000D01*
X145740308Y-92486000D01*
X144400918Y-92486000D01*
X144333879Y-92466315D01*
X144313237Y-92449681D01*
X144046237Y-92182681D01*
X144012752Y-92121358D01*
X144017736Y-92051666D01*
X144059608Y-91995733D01*
X144125072Y-91971316D01*
X144133918Y-91971000D01*
X145740313Y-91971000D01*
X145834650Y-91956058D01*
X145834650Y-91956057D01*
X145834655Y-91956057D01*
X145948371Y-91898116D01*
X146038616Y-91807871D01*
X146038617Y-91807868D01*
X146044758Y-91801728D01*
X146063542Y-91786312D01*
X146125431Y-91744960D01*
X146266460Y-91603931D01*
X146377266Y-91438099D01*
X146453590Y-91253835D01*
X146492500Y-91058223D01*
X146492500Y-90858777D01*
X146492500Y-90858774D01*
X146453591Y-90663170D01*
X146453589Y-90663163D01*
X146453588Y-90663160D01*
X146431821Y-90610612D01*
X146424352Y-90541145D01*
X146455626Y-90478666D01*
X146458673Y-90475507D01*
X151731863Y-85202319D01*
X151793186Y-85168834D01*
X151819544Y-85166000D01*
X159746365Y-85166000D01*
X159813404Y-85185685D01*
X159859159Y-85238489D01*
X159869103Y-85307647D01*
X159849467Y-85358890D01*
X159822740Y-85398889D01*
X159822730Y-85398907D01*
X159746411Y-85583160D01*
X159746408Y-85583170D01*
X159707500Y-85778774D01*
X159707500Y-85778777D01*
X159707500Y-85978223D01*
X159707500Y-85978225D01*
X159707499Y-85978225D01*
X159746408Y-86173829D01*
X159746410Y-86173835D01*
X159768177Y-86226385D01*
X159775646Y-86295855D01*
X159744371Y-86358334D01*
X159741297Y-86361519D01*
X144337531Y-101765286D01*
X144337527Y-101765291D01*
X144291387Y-101845209D01*
X144291386Y-101845212D01*
X144267500Y-101934356D01*
X144267500Y-107183500D01*
X144247815Y-107250539D01*
X144195011Y-107296294D01*
X144143500Y-107307500D01*
X143831323Y-107307500D01*
X143758264Y-107322032D01*
X143758260Y-107322033D01*
X143675399Y-107377399D01*
X143620033Y-107460260D01*
X143620032Y-107460264D01*
X143605500Y-107533321D01*
X143605500Y-109106678D01*
X143620032Y-109179735D01*
X143620033Y-109179739D01*
X143620034Y-109179740D01*
X143675399Y-109262601D01*
X143721780Y-109293591D01*
X143758260Y-109317966D01*
X143758264Y-109317967D01*
X143831321Y-109332499D01*
X143831324Y-109332500D01*
X143831326Y-109332500D01*
X145404676Y-109332500D01*
X145404677Y-109332499D01*
X145477740Y-109317966D01*
X145560601Y-109262601D01*
X145615966Y-109179740D01*
X145630500Y-109106674D01*
X145630500Y-107533326D01*
X145630500Y-107533323D01*
X145630499Y-107533321D01*
X145615967Y-107460264D01*
X145615966Y-107460260D01*
X145590891Y-107422732D01*
X145560601Y-107377399D01*
X145477740Y-107322034D01*
X145477739Y-107322033D01*
X145477735Y-107322032D01*
X145404677Y-107307500D01*
X145404674Y-107307500D01*
X145092500Y-107307500D01*
X145025461Y-107287815D01*
X144979706Y-107235011D01*
X144968500Y-107183500D01*
X144968500Y-102177043D01*
X144988185Y-102110004D01*
X145004814Y-102089367D01*
X160204113Y-86890067D01*
X160265436Y-86856583D01*
X160335128Y-86861567D01*
X160348088Y-86867264D01*
X160365347Y-86876058D01*
X160459687Y-86891000D01*
X160459692Y-86891000D01*
X160620277Y-86891000D01*
X160819723Y-86891000D01*
X162263086Y-86891000D01*
X162330125Y-86910685D01*
X162350767Y-86927319D01*
X162617767Y-87194319D01*
X162651252Y-87255642D01*
X162646268Y-87325334D01*
X162604396Y-87381267D01*
X162538932Y-87405684D01*
X162530086Y-87406000D01*
X160459687Y-87406000D01*
X160365349Y-87420941D01*
X160251627Y-87478885D01*
X160251623Y-87478888D01*
X160155248Y-87575264D01*
X160136461Y-87590683D01*
X160074567Y-87632041D01*
X160074562Y-87632046D01*
X159933542Y-87773065D01*
X159933539Y-87773069D01*
X159822737Y-87938894D01*
X159822730Y-87938907D01*
X159746411Y-88123160D01*
X159746408Y-88123170D01*
X159707500Y-88318774D01*
X159707500Y-88318777D01*
X159707500Y-88518223D01*
X159707500Y-88518225D01*
X159707499Y-88518225D01*
X159746408Y-88713828D01*
X159746409Y-88713831D01*
X159746410Y-88713835D01*
X159748254Y-88718286D01*
X159768178Y-88766388D01*
X159775645Y-88835857D01*
X159744370Y-88898336D01*
X159741297Y-88901520D01*
X151957531Y-96685286D01*
X151957527Y-96685291D01*
X151945116Y-96706790D01*
X151945115Y-96706792D01*
X151928250Y-96736002D01*
X151911386Y-96765211D01*
X151887500Y-96854356D01*
X151887500Y-107286404D01*
X151867815Y-107353443D01*
X151815011Y-107399198D01*
X151810955Y-107400964D01*
X151758404Y-107422732D01*
X151758403Y-107422732D01*
X151592569Y-107533539D01*
X151592565Y-107533542D01*
X151451542Y-107674565D01*
X151451539Y-107674569D01*
X151340737Y-107840394D01*
X151340730Y-107840407D01*
X151264411Y-108024660D01*
X151264408Y-108024670D01*
X151225500Y-108220274D01*
X151225500Y-108220277D01*
X151225500Y-108419723D01*
X151225500Y-108419725D01*
X151225499Y-108419725D01*
X151264408Y-108615329D01*
X151264411Y-108615339D01*
X151340730Y-108799592D01*
X151340740Y-108799610D01*
X151367467Y-108839610D01*
X151388345Y-108906287D01*
X151369860Y-108973667D01*
X151317881Y-109020357D01*
X151264365Y-109032500D01*
X150957544Y-109032500D01*
X150890505Y-109012815D01*
X150869863Y-108996181D01*
X150676702Y-108803020D01*
X150643217Y-108741697D01*
X150648201Y-108672005D01*
X150649808Y-108667920D01*
X150671590Y-108615335D01*
X150710500Y-108419723D01*
X150710500Y-108220277D01*
X150710500Y-108220274D01*
X150671591Y-108024670D01*
X150671590Y-108024669D01*
X150671590Y-108024665D01*
X150649823Y-107972115D01*
X150595269Y-107840407D01*
X150595262Y-107840394D01*
X150484460Y-107674569D01*
X150484457Y-107674565D01*
X150343434Y-107533542D01*
X150343430Y-107533539D01*
X150177605Y-107422737D01*
X150177592Y-107422730D01*
X149993339Y-107346411D01*
X149993329Y-107346408D01*
X149797725Y-107307500D01*
X149797723Y-107307500D01*
X149598277Y-107307500D01*
X149598275Y-107307500D01*
X149402670Y-107346408D01*
X149402660Y-107346411D01*
X149218407Y-107422730D01*
X149218394Y-107422737D01*
X149052569Y-107533539D01*
X149052565Y-107533542D01*
X148911542Y-107674565D01*
X148911539Y-107674569D01*
X148800737Y-107840394D01*
X148800730Y-107840407D01*
X148724411Y-108024660D01*
X148724408Y-108024670D01*
X148685500Y-108220274D01*
X148685500Y-108220277D01*
X148685500Y-108419723D01*
X148685500Y-108419725D01*
X148685499Y-108419725D01*
X148724408Y-108615329D01*
X148724411Y-108615339D01*
X148800730Y-108799592D01*
X148800737Y-108799605D01*
X148911539Y-108965430D01*
X148911542Y-108965434D01*
X149052565Y-109106457D01*
X149052569Y-109106460D01*
X149218394Y-109217262D01*
X149218407Y-109217269D01*
X149402660Y-109293588D01*
X149402665Y-109293590D01*
X149402669Y-109293590D01*
X149402670Y-109293591D01*
X149598274Y-109332500D01*
X149598277Y-109332500D01*
X149797725Y-109332500D01*
X149983094Y-109295627D01*
X149993335Y-109293590D01*
X150045887Y-109271821D01*
X150115355Y-109264353D01*
X150177834Y-109295627D01*
X150181020Y-109298702D01*
X150545788Y-109663470D01*
X150625712Y-109709614D01*
X150714856Y-109733500D01*
X150714858Y-109733500D01*
X155264452Y-109733500D01*
X155264454Y-109733500D01*
X155353598Y-109709614D01*
X155433522Y-109663470D01*
X156121470Y-108975522D01*
X156167614Y-108895598D01*
X156188112Y-108819094D01*
X156224475Y-108759437D01*
X156287322Y-108728907D01*
X156356697Y-108737201D01*
X156410576Y-108781686D01*
X156417451Y-108794449D01*
X156417864Y-108794229D01*
X156420737Y-108799605D01*
X156531539Y-108965430D01*
X156531542Y-108965434D01*
X156672565Y-109106457D01*
X156672569Y-109106460D01*
X156838394Y-109217262D01*
X156838407Y-109217269D01*
X157022660Y-109293588D01*
X157022665Y-109293590D01*
X157022669Y-109293590D01*
X157022670Y-109293591D01*
X157218274Y-109332500D01*
X157218277Y-109332500D01*
X157417725Y-109332500D01*
X157603094Y-109295627D01*
X157613335Y-109293590D01*
X157797599Y-109217266D01*
X157963431Y-109106460D01*
X158104460Y-108965431D01*
X158215266Y-108799599D01*
X158291590Y-108615335D01*
X158330500Y-108419725D01*
X158845499Y-108419725D01*
X158884408Y-108615329D01*
X158884411Y-108615339D01*
X158960730Y-108799592D01*
X158960737Y-108799605D01*
X159071539Y-108965430D01*
X159071542Y-108965434D01*
X159212565Y-109106457D01*
X159212569Y-109106460D01*
X159378394Y-109217262D01*
X159378407Y-109217269D01*
X159562660Y-109293588D01*
X159562665Y-109293590D01*
X159562669Y-109293590D01*
X159562670Y-109293591D01*
X159758274Y-109332500D01*
X159758277Y-109332500D01*
X159957725Y-109332500D01*
X160143094Y-109295627D01*
X160153335Y-109293590D01*
X160337599Y-109217266D01*
X160503431Y-109106460D01*
X160644460Y-108965431D01*
X160755266Y-108799599D01*
X160831590Y-108615335D01*
X160870500Y-108419723D01*
X160870500Y-108220277D01*
X160870500Y-108220274D01*
X160831591Y-108024670D01*
X160831590Y-108024669D01*
X160831590Y-108024665D01*
X160809823Y-107972115D01*
X160755269Y-107840407D01*
X160755262Y-107840394D01*
X160644460Y-107674569D01*
X160644457Y-107674565D01*
X160503434Y-107533542D01*
X160503430Y-107533539D01*
X160337605Y-107422737D01*
X160337592Y-107422730D01*
X160153339Y-107346411D01*
X160153329Y-107346408D01*
X159957725Y-107307500D01*
X159957723Y-107307500D01*
X159758277Y-107307500D01*
X159758275Y-107307500D01*
X159562670Y-107346408D01*
X159562660Y-107346411D01*
X159378407Y-107422730D01*
X159378394Y-107422737D01*
X159212569Y-107533539D01*
X159212565Y-107533542D01*
X159071542Y-107674565D01*
X159071539Y-107674569D01*
X158960737Y-107840394D01*
X158960730Y-107840407D01*
X158884411Y-108024660D01*
X158884408Y-108024670D01*
X158845500Y-108220274D01*
X158845500Y-108220277D01*
X158845500Y-108419723D01*
X158845500Y-108419725D01*
X158845499Y-108419725D01*
X158330500Y-108419725D01*
X158330500Y-108419723D01*
X158330500Y-108220277D01*
X158330500Y-108220274D01*
X158291591Y-108024670D01*
X158291589Y-108024663D01*
X158291588Y-108024660D01*
X158269821Y-107972112D01*
X158262352Y-107902645D01*
X158293626Y-107840166D01*
X158296672Y-107837008D01*
X161000470Y-105133212D01*
X161046614Y-105053288D01*
X161070500Y-104964143D01*
X161070500Y-104871856D01*
X161070500Y-97175000D01*
X161090185Y-97107961D01*
X161142989Y-97062206D01*
X161194500Y-97051000D01*
X162650313Y-97051000D01*
X162744650Y-97036058D01*
X162744650Y-97036057D01*
X162744655Y-97036057D01*
X162858371Y-96978116D01*
X162948616Y-96887871D01*
X163006557Y-96774155D01*
X163006558Y-96774150D01*
X163021500Y-96679813D01*
X163021500Y-95397186D01*
X163006558Y-95302849D01*
X163006557Y-95302847D01*
X163006557Y-95302845D01*
X162948616Y-95189129D01*
X162948614Y-95189127D01*
X162948611Y-95189123D01*
X162858376Y-95098888D01*
X162858372Y-95098885D01*
X162858371Y-95098884D01*
X162744655Y-95040943D01*
X162744653Y-95040942D01*
X162744650Y-95040941D01*
X162650313Y-95026000D01*
X162650308Y-95026000D01*
X160459692Y-95026000D01*
X160459687Y-95026000D01*
X160365349Y-95040941D01*
X160251627Y-95098885D01*
X160251623Y-95098888D01*
X160155248Y-95195264D01*
X160136461Y-95210683D01*
X160074567Y-95252041D01*
X160074562Y-95252046D01*
X159933542Y-95393065D01*
X159933539Y-95393069D01*
X159822737Y-95558894D01*
X159822730Y-95558907D01*
X159746411Y-95743160D01*
X159746408Y-95743170D01*
X159707500Y-95938774D01*
X159707500Y-95938777D01*
X159707500Y-96138223D01*
X159707500Y-96138225D01*
X159707499Y-96138225D01*
X159746408Y-96333829D01*
X159746411Y-96333839D01*
X159822730Y-96518092D01*
X159822737Y-96518105D01*
X159933539Y-96683930D01*
X159933542Y-96683934D01*
X160074565Y-96824957D01*
X160074573Y-96824963D01*
X160136454Y-96866311D01*
X160145814Y-96873221D01*
X160159657Y-96884482D01*
X160161384Y-96887871D01*
X160251629Y-96978116D01*
X160313532Y-97009657D01*
X160323750Y-97017969D01*
X160336379Y-97036339D01*
X160352591Y-97051650D01*
X160356278Y-97065282D01*
X160363334Y-97075545D01*
X160363889Y-97093421D01*
X160369500Y-97114161D01*
X160369500Y-104721455D01*
X160349815Y-104788494D01*
X160333181Y-104809136D01*
X157801019Y-107341297D01*
X157739696Y-107374782D01*
X157670004Y-107369798D01*
X157665885Y-107368177D01*
X157613335Y-107346410D01*
X157613329Y-107346408D01*
X157417725Y-107307500D01*
X157417723Y-107307500D01*
X157218277Y-107307500D01*
X157218275Y-107307500D01*
X157022670Y-107346408D01*
X157022660Y-107346411D01*
X156838407Y-107422730D01*
X156838394Y-107422737D01*
X156672569Y-107533539D01*
X156672565Y-107533542D01*
X156531542Y-107674565D01*
X156531539Y-107674569D01*
X156418602Y-107843590D01*
X156364989Y-107888395D01*
X156295664Y-107897102D01*
X156232637Y-107866947D01*
X156195918Y-107807504D01*
X156191500Y-107774699D01*
X156191500Y-98574043D01*
X156211185Y-98507004D01*
X156227814Y-98486367D01*
X160204113Y-94510067D01*
X160265436Y-94476583D01*
X160335128Y-94481567D01*
X160348088Y-94487264D01*
X160365347Y-94496058D01*
X160459687Y-94511000D01*
X160459692Y-94511000D01*
X162650313Y-94511000D01*
X162744650Y-94496058D01*
X162744650Y-94496057D01*
X162744655Y-94496057D01*
X162858371Y-94438116D01*
X162948616Y-94347871D01*
X163006557Y-94234155D01*
X163020847Y-94143934D01*
X163021500Y-94139813D01*
X163021500Y-92857186D01*
X163006558Y-92762849D01*
X163006557Y-92762847D01*
X163006557Y-92762845D01*
X162948616Y-92649129D01*
X162948614Y-92649127D01*
X162948611Y-92649123D01*
X162858376Y-92558888D01*
X162858372Y-92558885D01*
X162858371Y-92558884D01*
X162744655Y-92500943D01*
X162744653Y-92500942D01*
X162744650Y-92500941D01*
X162650313Y-92486000D01*
X162650308Y-92486000D01*
X160459692Y-92486000D01*
X160459687Y-92486000D01*
X160365349Y-92500941D01*
X160251627Y-92558885D01*
X160251623Y-92558888D01*
X160155248Y-92655264D01*
X160136461Y-92670683D01*
X160074567Y-92712041D01*
X160074562Y-92712046D01*
X159933542Y-92853065D01*
X159933539Y-92853069D01*
X159822737Y-93018894D01*
X159822730Y-93018907D01*
X159746411Y-93203160D01*
X159746408Y-93203170D01*
X159707500Y-93398774D01*
X159707500Y-93398777D01*
X159707500Y-93598223D01*
X159707500Y-93598225D01*
X159707499Y-93598225D01*
X159746408Y-93793829D01*
X159746410Y-93793835D01*
X159754082Y-93812358D01*
X159768177Y-93846385D01*
X159775646Y-93915855D01*
X159744371Y-93978334D01*
X159741297Y-93981519D01*
X155560531Y-98162286D01*
X155560527Y-98162291D01*
X155514387Y-98242209D01*
X155514386Y-98242212D01*
X155490500Y-98331356D01*
X155490500Y-107346366D01*
X155489491Y-107349799D01*
X155490307Y-107353284D01*
X155479719Y-107383080D01*
X155470815Y-107413405D01*
X155468111Y-107415747D01*
X155466913Y-107419121D01*
X155441893Y-107438465D01*
X155418011Y-107459160D01*
X155414469Y-107459669D01*
X155411639Y-107461858D01*
X155380148Y-107464604D01*
X155348853Y-107469104D01*
X155344548Y-107467708D01*
X155342033Y-107467928D01*
X155330702Y-107463219D01*
X155308776Y-107456111D01*
X155303019Y-107453083D01*
X155257599Y-107422734D01*
X155199810Y-107398796D01*
X155194776Y-107396149D01*
X155173601Y-107375623D01*
X155150643Y-107357122D01*
X155148799Y-107351582D01*
X155144607Y-107347519D01*
X155137890Y-107318805D01*
X155128579Y-107290828D01*
X155128500Y-107286404D01*
X155128500Y-97097043D01*
X155148185Y-97030004D01*
X155164814Y-97009367D01*
X160204113Y-91970067D01*
X160265436Y-91936583D01*
X160335128Y-91941567D01*
X160348088Y-91947264D01*
X160365347Y-91956058D01*
X160459687Y-91971000D01*
X160459692Y-91971000D01*
X162650313Y-91971000D01*
X162744650Y-91956058D01*
X162744650Y-91956057D01*
X162744655Y-91956057D01*
X162858371Y-91898116D01*
X162948616Y-91807871D01*
X163006557Y-91694155D01*
X163020847Y-91603934D01*
X163021500Y-91599813D01*
X163021500Y-90317186D01*
X163006558Y-90222849D01*
X163006557Y-90222847D01*
X163006557Y-90222845D01*
X162948616Y-90109129D01*
X162948614Y-90109127D01*
X162948611Y-90109123D01*
X162858376Y-90018888D01*
X162858372Y-90018885D01*
X162858371Y-90018884D01*
X162744655Y-89960943D01*
X162744653Y-89960942D01*
X162744650Y-89960941D01*
X162650313Y-89946000D01*
X162650308Y-89946000D01*
X160459692Y-89946000D01*
X160459687Y-89946000D01*
X160365349Y-89960941D01*
X160251627Y-90018885D01*
X160251623Y-90018888D01*
X160155248Y-90115264D01*
X160136461Y-90130683D01*
X160074567Y-90172041D01*
X160074562Y-90172046D01*
X159933542Y-90313065D01*
X159933539Y-90313069D01*
X159822737Y-90478894D01*
X159822730Y-90478907D01*
X159746411Y-90663160D01*
X159746408Y-90663170D01*
X159707500Y-90858774D01*
X159707500Y-90858777D01*
X159707500Y-91058223D01*
X159707500Y-91058225D01*
X159707499Y-91058225D01*
X159746408Y-91253829D01*
X159746410Y-91253835D01*
X159768177Y-91306385D01*
X159775646Y-91375855D01*
X159744371Y-91438334D01*
X159741297Y-91441519D01*
X154497531Y-96685286D01*
X154497527Y-96685291D01*
X154485116Y-96706790D01*
X154485115Y-96706792D01*
X154468250Y-96736002D01*
X154451386Y-96765211D01*
X154427500Y-96854356D01*
X154427500Y-107286404D01*
X154407815Y-107353443D01*
X154355011Y-107399198D01*
X154350955Y-107400964D01*
X154298404Y-107422732D01*
X154298403Y-107422732D01*
X154132569Y-107533539D01*
X154132565Y-107533542D01*
X153991542Y-107674565D01*
X153991539Y-107674569D01*
X153880737Y-107840394D01*
X153880730Y-107840407D01*
X153804411Y-108024660D01*
X153804408Y-108024670D01*
X153765500Y-108220274D01*
X153765500Y-108220277D01*
X153765500Y-108419723D01*
X153765500Y-108419725D01*
X153765499Y-108419725D01*
X153804408Y-108615329D01*
X153804411Y-108615339D01*
X153880730Y-108799592D01*
X153880740Y-108799610D01*
X153907467Y-108839610D01*
X153928345Y-108906287D01*
X153909860Y-108973667D01*
X153857881Y-109020357D01*
X153804365Y-109032500D01*
X153211635Y-109032500D01*
X153144596Y-109012815D01*
X153098841Y-108960011D01*
X153088897Y-108890853D01*
X153108533Y-108839610D01*
X153135259Y-108799610D01*
X153135262Y-108799605D01*
X153135266Y-108799599D01*
X153211590Y-108615335D01*
X153250500Y-108419723D01*
X153250500Y-108220277D01*
X153250500Y-108220274D01*
X153211591Y-108024670D01*
X153211590Y-108024669D01*
X153211590Y-108024665D01*
X153189823Y-107972115D01*
X153135269Y-107840407D01*
X153135262Y-107840394D01*
X153024460Y-107674569D01*
X153024457Y-107674565D01*
X152883434Y-107533542D01*
X152883430Y-107533539D01*
X152784907Y-107467708D01*
X152717599Y-107422734D01*
X152717596Y-107422732D01*
X152717595Y-107422732D01*
X152665045Y-107400964D01*
X152610643Y-107357122D01*
X152588579Y-107290828D01*
X152588500Y-107286404D01*
X152588500Y-97097042D01*
X152608185Y-97030003D01*
X152624814Y-97009366D01*
X160204114Y-89430065D01*
X160265435Y-89396582D01*
X160335127Y-89401566D01*
X160348078Y-89407259D01*
X160365345Y-89416057D01*
X160365346Y-89416057D01*
X160365348Y-89416058D01*
X160459687Y-89431000D01*
X160459692Y-89431000D01*
X162650313Y-89431000D01*
X162744650Y-89416058D01*
X162744650Y-89416057D01*
X162744655Y-89416057D01*
X162858371Y-89358116D01*
X162948616Y-89267871D01*
X163006557Y-89154155D01*
X163008072Y-89144592D01*
X163021500Y-89059813D01*
X163021500Y-87897414D01*
X163041185Y-87830375D01*
X163093989Y-87784620D01*
X163163147Y-87774676D01*
X163226703Y-87803701D01*
X163233181Y-87809733D01*
X166213181Y-90789733D01*
X166246666Y-90851056D01*
X166249500Y-90877414D01*
X166249500Y-93697481D01*
X166229815Y-93764520D01*
X166181795Y-93807966D01*
X166023211Y-93888768D01*
X165965528Y-93930678D01*
X165883072Y-93990586D01*
X165883070Y-93990588D01*
X165883069Y-93990588D01*
X165760588Y-94113069D01*
X165760588Y-94113070D01*
X165760586Y-94113072D01*
X165716859Y-94173256D01*
X165658768Y-94253211D01*
X165580128Y-94407552D01*
X165580127Y-94407554D01*
X165580127Y-94407555D01*
X165572657Y-94430545D01*
X165526597Y-94572302D01*
X165499500Y-94743389D01*
X165499500Y-94916610D01*
X165516825Y-95026000D01*
X165526598Y-95087701D01*
X165580127Y-95252445D01*
X165658768Y-95406788D01*
X165760586Y-95546928D01*
X165883072Y-95669414D01*
X166023212Y-95771232D01*
X166177555Y-95849873D01*
X166342299Y-95903402D01*
X166513389Y-95930500D01*
X166513390Y-95930500D01*
X166686610Y-95930500D01*
X166686611Y-95930500D01*
X166857701Y-95903402D01*
X167022445Y-95849873D01*
X167176788Y-95771232D01*
X167203614Y-95751741D01*
X167215474Y-95747509D01*
X167224989Y-95739265D01*
X167247753Y-95735991D01*
X167269419Y-95728261D01*
X167281683Y-95731113D01*
X167294147Y-95729321D01*
X167315071Y-95738876D01*
X167337473Y-95744086D01*
X167346247Y-95753114D01*
X167357703Y-95758346D01*
X167370139Y-95777697D01*
X167386169Y-95794191D01*
X167389573Y-95807937D01*
X167395477Y-95817124D01*
X167400500Y-95852059D01*
X167400500Y-96022455D01*
X167380815Y-96089494D01*
X167364181Y-96110136D01*
X167152969Y-96321347D01*
X167091646Y-96354832D01*
X167026970Y-96351597D01*
X166857698Y-96296597D01*
X166726271Y-96275781D01*
X166686611Y-96269500D01*
X166513389Y-96269500D01*
X166473728Y-96275781D01*
X166342302Y-96296597D01*
X166177552Y-96350128D01*
X166023211Y-96428768D01*
X165943256Y-96486859D01*
X165883072Y-96530586D01*
X165883070Y-96530588D01*
X165883069Y-96530588D01*
X165760588Y-96653069D01*
X165760588Y-96653070D01*
X165760586Y-96653072D01*
X165721556Y-96706792D01*
X165658768Y-96793211D01*
X165580128Y-96947552D01*
X165526597Y-97112302D01*
X165516667Y-97175000D01*
X165499500Y-97283389D01*
X165499500Y-97456611D01*
X165526598Y-97627701D01*
X165580127Y-97792445D01*
X165658768Y-97946788D01*
X165760586Y-98086928D01*
X165883072Y-98209414D01*
X166023212Y-98311232D01*
X166177555Y-98389873D01*
X166342299Y-98443402D01*
X166513389Y-98470500D01*
X166513390Y-98470500D01*
X166686610Y-98470500D01*
X166686611Y-98470500D01*
X166857701Y-98443402D01*
X167022445Y-98389873D01*
X167176788Y-98311232D01*
X167316928Y-98209414D01*
X167439414Y-98086928D01*
X167541232Y-97946788D01*
X167567015Y-97896186D01*
X167614989Y-97845390D01*
X167682810Y-97828594D01*
X167748945Y-97851131D01*
X167792397Y-97905846D01*
X167801500Y-97952480D01*
X167801500Y-98161455D01*
X167781815Y-98228494D01*
X167765181Y-98249136D01*
X167152969Y-98861347D01*
X167091646Y-98894832D01*
X167026970Y-98891597D01*
X166857698Y-98836597D01*
X166726271Y-98815781D01*
X166686611Y-98809500D01*
X166513389Y-98809500D01*
X166473728Y-98815781D01*
X166342302Y-98836597D01*
X166177552Y-98890128D01*
X166023211Y-98968768D01*
X165998997Y-98986361D01*
X165883072Y-99070586D01*
X165883070Y-99070588D01*
X165883069Y-99070588D01*
X165760588Y-99193069D01*
X165760588Y-99193070D01*
X165760586Y-99193072D01*
X165716859Y-99253256D01*
X165658768Y-99333211D01*
X165580128Y-99487552D01*
X165526597Y-99652302D01*
X165526597Y-99652304D01*
X165499500Y-99823389D01*
X165499500Y-99996611D01*
X165526598Y-100167701D01*
X165580127Y-100332445D01*
X165658768Y-100486788D01*
X165760586Y-100626928D01*
X165883072Y-100749414D01*
X166023212Y-100851232D01*
X166177555Y-100929873D01*
X166342299Y-100983402D01*
X166513389Y-101010500D01*
X166513390Y-101010500D01*
X166686610Y-101010500D01*
X166686611Y-101010500D01*
X166857701Y-100983402D01*
X167022445Y-100929873D01*
X167176788Y-100851232D01*
X167316928Y-100749414D01*
X167439414Y-100626928D01*
X167541232Y-100486788D01*
X167619873Y-100332445D01*
X167673402Y-100167701D01*
X167700500Y-99996611D01*
X167700500Y-99823389D01*
X167673402Y-99652299D01*
X167619873Y-99487555D01*
X167619869Y-99487547D01*
X167618401Y-99483029D01*
X167616406Y-99413188D01*
X167648649Y-99357031D01*
X167990820Y-99014861D01*
X168052142Y-98981377D01*
X168121834Y-98986361D01*
X168177767Y-99028233D01*
X168202184Y-99093697D01*
X168202500Y-99102543D01*
X168202500Y-103046085D01*
X168182815Y-103113124D01*
X168166181Y-103133766D01*
X163467907Y-107832039D01*
X163406584Y-107865524D01*
X163336892Y-107860540D01*
X163280959Y-107818668D01*
X163277124Y-107813249D01*
X163184460Y-107674569D01*
X163184457Y-107674565D01*
X163043434Y-107533542D01*
X163043430Y-107533539D01*
X162877605Y-107422737D01*
X162877592Y-107422730D01*
X162693339Y-107346411D01*
X162693329Y-107346408D01*
X162497725Y-107307500D01*
X162497723Y-107307500D01*
X162298277Y-107307500D01*
X162298275Y-107307500D01*
X162102670Y-107346408D01*
X162102660Y-107346411D01*
X161918407Y-107422730D01*
X161918394Y-107422737D01*
X161752569Y-107533539D01*
X161752565Y-107533542D01*
X161611542Y-107674565D01*
X161611539Y-107674569D01*
X161500737Y-107840394D01*
X161500730Y-107840407D01*
X161424411Y-108024660D01*
X161424408Y-108024670D01*
X161385500Y-108220274D01*
X161385500Y-108220277D01*
X161385500Y-108419723D01*
X161385500Y-108419725D01*
X161385499Y-108419725D01*
X161424408Y-108615329D01*
X161424411Y-108615339D01*
X161500730Y-108799592D01*
X161500737Y-108799605D01*
X161611539Y-108965430D01*
X161611542Y-108965434D01*
X161752565Y-109106457D01*
X161752569Y-109106460D01*
X161918394Y-109217262D01*
X161918407Y-109217269D01*
X162102660Y-109293588D01*
X162102665Y-109293590D01*
X162102669Y-109293590D01*
X162102670Y-109293591D01*
X162298274Y-109332500D01*
X162298277Y-109332500D01*
X162497725Y-109332500D01*
X162683094Y-109295627D01*
X162693335Y-109293590D01*
X162877599Y-109217266D01*
X163043431Y-109106460D01*
X163184460Y-108965431D01*
X163295266Y-108799599D01*
X163317033Y-108747047D01*
X163360873Y-108692645D01*
X163427166Y-108670579D01*
X163431594Y-108670500D01*
X163521772Y-108670500D01*
X163521774Y-108670500D01*
X163610918Y-108646614D01*
X163690842Y-108600470D01*
X168833470Y-103457842D01*
X168879614Y-103377918D01*
X168903500Y-103288773D01*
X168903500Y-103196486D01*
X168903500Y-87971730D01*
X168879614Y-87882586D01*
X168877346Y-87878658D01*
X168833470Y-87802662D01*
X163025838Y-81995030D01*
X163025837Y-81995029D01*
X163025834Y-81995027D01*
X162945916Y-81948887D01*
X162945915Y-81948886D01*
X162936492Y-81946361D01*
X162918095Y-81941432D01*
X162858437Y-81905068D01*
X162827908Y-81842221D01*
X162836203Y-81772845D01*
X162862507Y-81733979D01*
X162948616Y-81647871D01*
X163006557Y-81534155D01*
X163006558Y-81534150D01*
X163021500Y-81439813D01*
X163021500Y-80157186D01*
X163006558Y-80062849D01*
X163006557Y-80062847D01*
X163006557Y-80062845D01*
X162948616Y-79949129D01*
X162948614Y-79949127D01*
X162948611Y-79949123D01*
X162858376Y-79858888D01*
X162858372Y-79858885D01*
X162858371Y-79858884D01*
X162744655Y-79800943D01*
X162744653Y-79800942D01*
X162744650Y-79800941D01*
X162650313Y-79786000D01*
X162650308Y-79786000D01*
X160459692Y-79786000D01*
X160459687Y-79786000D01*
X160365349Y-79800941D01*
X160251627Y-79858885D01*
X160251623Y-79858888D01*
X160155248Y-79955264D01*
X160136461Y-79970683D01*
X160074567Y-80012041D01*
X160074562Y-80012046D01*
X159933542Y-80153065D01*
X159933539Y-80153069D01*
X159822737Y-80318894D01*
X159822730Y-80318907D01*
X159746411Y-80503160D01*
X159746408Y-80503170D01*
X159707500Y-80698774D01*
X159707500Y-80698777D01*
X159707500Y-80898223D01*
X159707500Y-80898225D01*
X159707499Y-80898225D01*
X159746408Y-81093829D01*
X159746411Y-81093839D01*
X159822730Y-81278092D01*
X159822737Y-81278105D01*
X159933539Y-81443930D01*
X159933542Y-81443934D01*
X160074565Y-81584957D01*
X160074573Y-81584963D01*
X160136454Y-81626311D01*
X160155246Y-81641732D01*
X160161383Y-81647869D01*
X160161384Y-81647871D01*
X160226832Y-81713319D01*
X160260316Y-81774643D01*
X160255331Y-81844334D01*
X160213460Y-81900268D01*
X160147995Y-81924684D01*
X160139150Y-81925000D01*
X147153543Y-81925000D01*
X147086504Y-81905315D01*
X147065862Y-81888681D01*
X146458701Y-81281520D01*
X146425216Y-81220197D01*
X146430200Y-81150505D01*
X146431796Y-81146447D01*
X146453590Y-81093835D01*
X146466322Y-81029824D01*
X146492500Y-80898225D01*
X146492500Y-80698774D01*
X146453591Y-80503170D01*
X146453590Y-80503169D01*
X146453590Y-80503165D01*
X146453588Y-80503160D01*
X146377269Y-80318907D01*
X146377262Y-80318894D01*
X146266460Y-80153069D01*
X146266457Y-80153065D01*
X146125434Y-80012042D01*
X146125430Y-80012039D01*
X146063547Y-79970690D01*
X146044757Y-79955269D01*
X145948376Y-79858888D01*
X145948372Y-79858885D01*
X145948371Y-79858884D01*
X145834655Y-79800943D01*
X145834653Y-79800942D01*
X145834650Y-79800941D01*
X145740313Y-79786000D01*
X145740308Y-79786000D01*
X143720457Y-79786000D01*
X143653418Y-79766315D01*
X143607663Y-79713511D01*
X143597719Y-79644353D01*
X143626744Y-79580797D01*
X143665997Y-79550600D01*
X143978067Y-79398038D01*
X143982699Y-79395890D01*
X144812604Y-79031859D01*
X144817268Y-79029927D01*
X145661491Y-78700511D01*
X145666287Y-78698752D01*
X146523406Y-78404504D01*
X146528208Y-78402965D01*
X147396765Y-78144384D01*
X147401685Y-78143029D01*
X148280176Y-77920565D01*
X148285122Y-77919421D01*
X149172054Y-77733450D01*
X149177045Y-77732511D01*
X150070895Y-77583354D01*
X150075952Y-77582617D01*
X150975242Y-77470521D01*
X150980246Y-77470002D01*
X151883370Y-77395168D01*
X151888442Y-77394853D01*
X152793874Y-77357403D01*
X152798998Y-77357298D01*
X153705180Y-77357298D01*
X153710303Y-77357403D01*
G37*
G04 #@! TD.AperFunction*
G04 #@! TD*
M02*
