G04 #@! TF.GenerationSoftware,KiCad,Pcbnew,9.0.2*
G04 #@! TF.CreationDate,2025-06-11T04:48:02-04:00*
G04 #@! TF.ProjectId,HackCharm,4861636b-4368-4617-926d-2e6b69636164,rev?*
G04 #@! TF.SameCoordinates,Original*
G04 #@! TF.FileFunction,Legend,Top*
G04 #@! TF.FilePolarity,Positive*
%FSLAX46Y46*%
G04 Gerber Fmt 4.6, Leading zero omitted, Abs format (unit mm)*
G04 Created by KiCad (PCBNEW 9.0.2) date 2025-06-11 04:48:02*
%MOMM*%
%LPD*%
G01*
G04 APERTURE LIST*
G04 Aperture macros list*
%AMRoundRect*
0 Rectangle with rounded corners*
0 $1 Rounding radius*
0 $2 $3 $4 $5 $6 $7 $8 $9 X,Y pos of 4 corners*
0 Add a 4 corners polygon primitive as box body*
4,1,4,$2,$3,$4,$5,$6,$7,$8,$9,$2,$3,0*
0 Add four circle primitives for the rounded corners*
1,1,$1+$1,$2,$3*
1,1,$1+$1,$4,$5*
1,1,$1+$1,$6,$7*
1,1,$1+$1,$8,$9*
0 Add four rect primitives between the rounded corners*
20,1,$1+$1,$2,$3,$4,$5,0*
20,1,$1+$1,$4,$5,$6,$7,0*
20,1,$1+$1,$6,$7,$8,$9,0*
20,1,$1+$1,$8,$9,$2,$3,0*%
G04 Aperture macros list end*
%ADD10C,0.100000*%
%ADD11C,0.101600*%
%ADD12C,0.150000*%
%ADD13C,0.127000*%
%ADD14C,0.504000*%
%ADD15C,0.120000*%
%ADD16R,1.524000X1.524000*%
%ADD17C,1.524000*%
%ADD18RoundRect,0.152400X1.063600X0.609600X-1.063600X0.609600X-1.063600X-0.609600X1.063600X-0.609600X0*%
%ADD19RoundRect,0.152400X-1.063600X-0.609600X1.063600X-0.609600X1.063600X0.609600X-1.063600X0.609600X0*%
%ADD20RoundRect,0.102000X0.900000X-0.675000X0.900000X0.675000X-0.900000X0.675000X-0.900000X-0.675000X0*%
%ADD21R,1.700000X1.700000*%
%ADD22C,1.700000*%
G04 APERTURE END LIST*
D10*
X152338095Y-114557419D02*
X152338095Y-115366942D01*
X152338095Y-115366942D02*
X152385714Y-115462180D01*
X152385714Y-115462180D02*
X152433333Y-115509800D01*
X152433333Y-115509800D02*
X152528571Y-115557419D01*
X152528571Y-115557419D02*
X152719047Y-115557419D01*
X152719047Y-115557419D02*
X152814285Y-115509800D01*
X152814285Y-115509800D02*
X152861904Y-115462180D01*
X152861904Y-115462180D02*
X152909523Y-115366942D01*
X152909523Y-115366942D02*
X152909523Y-114557419D01*
X153338095Y-114652657D02*
X153385714Y-114605038D01*
X153385714Y-114605038D02*
X153480952Y-114557419D01*
X153480952Y-114557419D02*
X153719047Y-114557419D01*
X153719047Y-114557419D02*
X153814285Y-114605038D01*
X153814285Y-114605038D02*
X153861904Y-114652657D01*
X153861904Y-114652657D02*
X153909523Y-114747895D01*
X153909523Y-114747895D02*
X153909523Y-114843133D01*
X153909523Y-114843133D02*
X153861904Y-114985990D01*
X153861904Y-114985990D02*
X153290476Y-115557419D01*
X153290476Y-115557419D02*
X153909523Y-115557419D01*
X152610419Y-113096115D02*
X151610419Y-113096115D01*
X151610419Y-113096115D02*
X152324704Y-112762782D01*
X152324704Y-112762782D02*
X151610419Y-112429449D01*
X151610419Y-112429449D02*
X152610419Y-112429449D01*
X151610419Y-111762782D02*
X151610419Y-111572306D01*
X151610419Y-111572306D02*
X151658038Y-111477068D01*
X151658038Y-111477068D02*
X151753276Y-111381830D01*
X151753276Y-111381830D02*
X151943752Y-111334211D01*
X151943752Y-111334211D02*
X152277085Y-111334211D01*
X152277085Y-111334211D02*
X152467561Y-111381830D01*
X152467561Y-111381830D02*
X152562800Y-111477068D01*
X152562800Y-111477068D02*
X152610419Y-111572306D01*
X152610419Y-111572306D02*
X152610419Y-111762782D01*
X152610419Y-111762782D02*
X152562800Y-111858020D01*
X152562800Y-111858020D02*
X152467561Y-111953258D01*
X152467561Y-111953258D02*
X152277085Y-112000877D01*
X152277085Y-112000877D02*
X151943752Y-112000877D01*
X151943752Y-112000877D02*
X151753276Y-111953258D01*
X151753276Y-111953258D02*
X151658038Y-111858020D01*
X151658038Y-111858020D02*
X151610419Y-111762782D01*
X152562800Y-110953258D02*
X152610419Y-110810401D01*
X152610419Y-110810401D02*
X152610419Y-110572306D01*
X152610419Y-110572306D02*
X152562800Y-110477068D01*
X152562800Y-110477068D02*
X152515180Y-110429449D01*
X152515180Y-110429449D02*
X152419942Y-110381830D01*
X152419942Y-110381830D02*
X152324704Y-110381830D01*
X152324704Y-110381830D02*
X152229466Y-110429449D01*
X152229466Y-110429449D02*
X152181847Y-110477068D01*
X152181847Y-110477068D02*
X152134228Y-110572306D01*
X152134228Y-110572306D02*
X152086609Y-110762782D01*
X152086609Y-110762782D02*
X152038990Y-110858020D01*
X152038990Y-110858020D02*
X151991371Y-110905639D01*
X151991371Y-110905639D02*
X151896133Y-110953258D01*
X151896133Y-110953258D02*
X151800895Y-110953258D01*
X151800895Y-110953258D02*
X151705657Y-110905639D01*
X151705657Y-110905639D02*
X151658038Y-110858020D01*
X151658038Y-110858020D02*
X151610419Y-110762782D01*
X151610419Y-110762782D02*
X151610419Y-110524687D01*
X151610419Y-110524687D02*
X151658038Y-110381830D01*
X152610419Y-109953258D02*
X151610419Y-109953258D01*
X155158419Y-112842115D02*
X154158419Y-112842115D01*
X154158419Y-112842115D02*
X154872704Y-112508782D01*
X154872704Y-112508782D02*
X154158419Y-112175449D01*
X154158419Y-112175449D02*
X155158419Y-112175449D01*
X155158419Y-111699258D02*
X154158419Y-111699258D01*
X155110800Y-111270687D02*
X155158419Y-111127830D01*
X155158419Y-111127830D02*
X155158419Y-110889735D01*
X155158419Y-110889735D02*
X155110800Y-110794497D01*
X155110800Y-110794497D02*
X155063180Y-110746878D01*
X155063180Y-110746878D02*
X154967942Y-110699259D01*
X154967942Y-110699259D02*
X154872704Y-110699259D01*
X154872704Y-110699259D02*
X154777466Y-110746878D01*
X154777466Y-110746878D02*
X154729847Y-110794497D01*
X154729847Y-110794497D02*
X154682228Y-110889735D01*
X154682228Y-110889735D02*
X154634609Y-111080211D01*
X154634609Y-111080211D02*
X154586990Y-111175449D01*
X154586990Y-111175449D02*
X154539371Y-111223068D01*
X154539371Y-111223068D02*
X154444133Y-111270687D01*
X154444133Y-111270687D02*
X154348895Y-111270687D01*
X154348895Y-111270687D02*
X154253657Y-111223068D01*
X154253657Y-111223068D02*
X154206038Y-111175449D01*
X154206038Y-111175449D02*
X154158419Y-111080211D01*
X154158419Y-111080211D02*
X154158419Y-110842116D01*
X154158419Y-110842116D02*
X154206038Y-110699259D01*
X154158419Y-110080211D02*
X154158419Y-109889735D01*
X154158419Y-109889735D02*
X154206038Y-109794497D01*
X154206038Y-109794497D02*
X154301276Y-109699259D01*
X154301276Y-109699259D02*
X154491752Y-109651640D01*
X154491752Y-109651640D02*
X154825085Y-109651640D01*
X154825085Y-109651640D02*
X155015561Y-109699259D01*
X155015561Y-109699259D02*
X155110800Y-109794497D01*
X155110800Y-109794497D02*
X155158419Y-109889735D01*
X155158419Y-109889735D02*
X155158419Y-110080211D01*
X155158419Y-110080211D02*
X155110800Y-110175449D01*
X155110800Y-110175449D02*
X155015561Y-110270687D01*
X155015561Y-110270687D02*
X154825085Y-110318306D01*
X154825085Y-110318306D02*
X154491752Y-110318306D01*
X154491752Y-110318306D02*
X154301276Y-110270687D01*
X154301276Y-110270687D02*
X154206038Y-110175449D01*
X154206038Y-110175449D02*
X154158419Y-110080211D01*
X160492419Y-112334115D02*
X159492419Y-112334115D01*
X160492419Y-111857925D02*
X159492419Y-111857925D01*
X159492419Y-111857925D02*
X160492419Y-111286497D01*
X160492419Y-111286497D02*
X159492419Y-111286497D01*
X159492419Y-110953163D02*
X159492419Y-110381735D01*
X160492419Y-110667449D02*
X159492419Y-110667449D01*
X159587657Y-110096020D02*
X159540038Y-110048401D01*
X159540038Y-110048401D02*
X159492419Y-109953163D01*
X159492419Y-109953163D02*
X159492419Y-109715068D01*
X159492419Y-109715068D02*
X159540038Y-109619830D01*
X159540038Y-109619830D02*
X159587657Y-109572211D01*
X159587657Y-109572211D02*
X159682895Y-109524592D01*
X159682895Y-109524592D02*
X159778133Y-109524592D01*
X159778133Y-109524592D02*
X159920990Y-109572211D01*
X159920990Y-109572211D02*
X160492419Y-110143639D01*
X160492419Y-110143639D02*
X160492419Y-109524592D01*
X162778419Y-112080115D02*
X161778419Y-112080115D01*
X162778419Y-111603925D02*
X161778419Y-111603925D01*
X161778419Y-111603925D02*
X162778419Y-111032497D01*
X162778419Y-111032497D02*
X161778419Y-111032497D01*
X161778419Y-110699163D02*
X161778419Y-110127735D01*
X162778419Y-110413449D02*
X161778419Y-110413449D01*
X162778419Y-109270592D02*
X162778419Y-109842020D01*
X162778419Y-109556306D02*
X161778419Y-109556306D01*
X161778419Y-109556306D02*
X161921276Y-109651544D01*
X161921276Y-109651544D02*
X162016514Y-109746782D01*
X162016514Y-109746782D02*
X162064133Y-109842020D01*
X157857180Y-111508687D02*
X157904800Y-111556306D01*
X157904800Y-111556306D02*
X157952419Y-111699163D01*
X157952419Y-111699163D02*
X157952419Y-111794401D01*
X157952419Y-111794401D02*
X157904800Y-111937258D01*
X157904800Y-111937258D02*
X157809561Y-112032496D01*
X157809561Y-112032496D02*
X157714323Y-112080115D01*
X157714323Y-112080115D02*
X157523847Y-112127734D01*
X157523847Y-112127734D02*
X157380990Y-112127734D01*
X157380990Y-112127734D02*
X157190514Y-112080115D01*
X157190514Y-112080115D02*
X157095276Y-112032496D01*
X157095276Y-112032496D02*
X157000038Y-111937258D01*
X157000038Y-111937258D02*
X156952419Y-111794401D01*
X156952419Y-111794401D02*
X156952419Y-111699163D01*
X156952419Y-111699163D02*
X157000038Y-111556306D01*
X157000038Y-111556306D02*
X157047657Y-111508687D01*
X157904800Y-111127734D02*
X157952419Y-110984877D01*
X157952419Y-110984877D02*
X157952419Y-110746782D01*
X157952419Y-110746782D02*
X157904800Y-110651544D01*
X157904800Y-110651544D02*
X157857180Y-110603925D01*
X157857180Y-110603925D02*
X157761942Y-110556306D01*
X157761942Y-110556306D02*
X157666704Y-110556306D01*
X157666704Y-110556306D02*
X157571466Y-110603925D01*
X157571466Y-110603925D02*
X157523847Y-110651544D01*
X157523847Y-110651544D02*
X157476228Y-110746782D01*
X157476228Y-110746782D02*
X157428609Y-110937258D01*
X157428609Y-110937258D02*
X157380990Y-111032496D01*
X157380990Y-111032496D02*
X157333371Y-111080115D01*
X157333371Y-111080115D02*
X157238133Y-111127734D01*
X157238133Y-111127734D02*
X157142895Y-111127734D01*
X157142895Y-111127734D02*
X157047657Y-111080115D01*
X157047657Y-111080115D02*
X157000038Y-111032496D01*
X157000038Y-111032496D02*
X156952419Y-110937258D01*
X156952419Y-110937258D02*
X156952419Y-110699163D01*
X156952419Y-110699163D02*
X157000038Y-110556306D01*
X144252419Y-111968972D02*
X145252419Y-111635639D01*
X145252419Y-111635639D02*
X144252419Y-111302306D01*
X145252419Y-110968972D02*
X144252419Y-110968972D01*
X145252419Y-110492782D02*
X144252419Y-110492782D01*
X144252419Y-110492782D02*
X145252419Y-109921354D01*
X145252419Y-109921354D02*
X144252419Y-109921354D01*
X146840038Y-111810306D02*
X146792419Y-111905544D01*
X146792419Y-111905544D02*
X146792419Y-112048401D01*
X146792419Y-112048401D02*
X146840038Y-112191258D01*
X146840038Y-112191258D02*
X146935276Y-112286496D01*
X146935276Y-112286496D02*
X147030514Y-112334115D01*
X147030514Y-112334115D02*
X147220990Y-112381734D01*
X147220990Y-112381734D02*
X147363847Y-112381734D01*
X147363847Y-112381734D02*
X147554323Y-112334115D01*
X147554323Y-112334115D02*
X147649561Y-112286496D01*
X147649561Y-112286496D02*
X147744800Y-112191258D01*
X147744800Y-112191258D02*
X147792419Y-112048401D01*
X147792419Y-112048401D02*
X147792419Y-111953163D01*
X147792419Y-111953163D02*
X147744800Y-111810306D01*
X147744800Y-111810306D02*
X147697180Y-111762687D01*
X147697180Y-111762687D02*
X147363847Y-111762687D01*
X147363847Y-111762687D02*
X147363847Y-111953163D01*
X147792419Y-111334115D02*
X146792419Y-111334115D01*
X146792419Y-111334115D02*
X147792419Y-110762687D01*
X147792419Y-110762687D02*
X146792419Y-110762687D01*
X147792419Y-110286496D02*
X146792419Y-110286496D01*
X146792419Y-110286496D02*
X146792419Y-110048401D01*
X146792419Y-110048401D02*
X146840038Y-109905544D01*
X146840038Y-109905544D02*
X146935276Y-109810306D01*
X146935276Y-109810306D02*
X147030514Y-109762687D01*
X147030514Y-109762687D02*
X147220990Y-109715068D01*
X147220990Y-109715068D02*
X147363847Y-109715068D01*
X147363847Y-109715068D02*
X147554323Y-109762687D01*
X147554323Y-109762687D02*
X147649561Y-109810306D01*
X147649561Y-109810306D02*
X147744800Y-109905544D01*
X147744800Y-109905544D02*
X147792419Y-110048401D01*
X147792419Y-110048401D02*
X147792419Y-110286496D01*
X150284800Y-112889734D02*
X150332419Y-112746877D01*
X150332419Y-112746877D02*
X150332419Y-112508782D01*
X150332419Y-112508782D02*
X150284800Y-112413544D01*
X150284800Y-112413544D02*
X150237180Y-112365925D01*
X150237180Y-112365925D02*
X150141942Y-112318306D01*
X150141942Y-112318306D02*
X150046704Y-112318306D01*
X150046704Y-112318306D02*
X149951466Y-112365925D01*
X149951466Y-112365925D02*
X149903847Y-112413544D01*
X149903847Y-112413544D02*
X149856228Y-112508782D01*
X149856228Y-112508782D02*
X149808609Y-112699258D01*
X149808609Y-112699258D02*
X149760990Y-112794496D01*
X149760990Y-112794496D02*
X149713371Y-112842115D01*
X149713371Y-112842115D02*
X149618133Y-112889734D01*
X149618133Y-112889734D02*
X149522895Y-112889734D01*
X149522895Y-112889734D02*
X149427657Y-112842115D01*
X149427657Y-112842115D02*
X149380038Y-112794496D01*
X149380038Y-112794496D02*
X149332419Y-112699258D01*
X149332419Y-112699258D02*
X149332419Y-112461163D01*
X149332419Y-112461163D02*
X149380038Y-112318306D01*
X150237180Y-111318306D02*
X150284800Y-111365925D01*
X150284800Y-111365925D02*
X150332419Y-111508782D01*
X150332419Y-111508782D02*
X150332419Y-111604020D01*
X150332419Y-111604020D02*
X150284800Y-111746877D01*
X150284800Y-111746877D02*
X150189561Y-111842115D01*
X150189561Y-111842115D02*
X150094323Y-111889734D01*
X150094323Y-111889734D02*
X149903847Y-111937353D01*
X149903847Y-111937353D02*
X149760990Y-111937353D01*
X149760990Y-111937353D02*
X149570514Y-111889734D01*
X149570514Y-111889734D02*
X149475276Y-111842115D01*
X149475276Y-111842115D02*
X149380038Y-111746877D01*
X149380038Y-111746877D02*
X149332419Y-111604020D01*
X149332419Y-111604020D02*
X149332419Y-111508782D01*
X149332419Y-111508782D02*
X149380038Y-111365925D01*
X149380038Y-111365925D02*
X149427657Y-111318306D01*
X150332419Y-110413544D02*
X150332419Y-110889734D01*
X150332419Y-110889734D02*
X149332419Y-110889734D01*
X150332419Y-110080210D02*
X149332419Y-110080210D01*
X150332419Y-109508782D02*
X149760990Y-109937353D01*
X149332419Y-109508782D02*
X149903847Y-110080210D01*
D11*
X152616190Y-87253479D02*
X152616190Y-87767526D01*
X152616190Y-87767526D02*
X152646428Y-87828002D01*
X152646428Y-87828002D02*
X152676666Y-87858241D01*
X152676666Y-87858241D02*
X152737142Y-87888479D01*
X152737142Y-87888479D02*
X152858095Y-87888479D01*
X152858095Y-87888479D02*
X152918571Y-87858241D01*
X152918571Y-87858241D02*
X152948809Y-87828002D01*
X152948809Y-87828002D02*
X152979047Y-87767526D01*
X152979047Y-87767526D02*
X152979047Y-87253479D01*
X153614047Y-87888479D02*
X153251190Y-87888479D01*
X153432618Y-87888479D02*
X153432618Y-87253479D01*
X153432618Y-87253479D02*
X153372142Y-87344193D01*
X153372142Y-87344193D02*
X153311666Y-87404669D01*
X153311666Y-87404669D02*
X153251190Y-87434907D01*
D12*
X136672200Y-89408332D02*
X136719819Y-89265475D01*
X136719819Y-89265475D02*
X136719819Y-89027380D01*
X136719819Y-89027380D02*
X136672200Y-88932142D01*
X136672200Y-88932142D02*
X136624580Y-88884523D01*
X136624580Y-88884523D02*
X136529342Y-88836904D01*
X136529342Y-88836904D02*
X136434104Y-88836904D01*
X136434104Y-88836904D02*
X136338866Y-88884523D01*
X136338866Y-88884523D02*
X136291247Y-88932142D01*
X136291247Y-88932142D02*
X136243628Y-89027380D01*
X136243628Y-89027380D02*
X136196009Y-89217856D01*
X136196009Y-89217856D02*
X136148390Y-89313094D01*
X136148390Y-89313094D02*
X136100771Y-89360713D01*
X136100771Y-89360713D02*
X136005533Y-89408332D01*
X136005533Y-89408332D02*
X135910295Y-89408332D01*
X135910295Y-89408332D02*
X135815057Y-89360713D01*
X135815057Y-89360713D02*
X135767438Y-89313094D01*
X135767438Y-89313094D02*
X135719819Y-89217856D01*
X135719819Y-89217856D02*
X135719819Y-88979761D01*
X135719819Y-88979761D02*
X135767438Y-88836904D01*
X135719819Y-88503570D02*
X136719819Y-88265475D01*
X136719819Y-88265475D02*
X136005533Y-88074999D01*
X136005533Y-88074999D02*
X136719819Y-87884523D01*
X136719819Y-87884523D02*
X135719819Y-87646428D01*
X136719819Y-86741666D02*
X136719819Y-87313094D01*
X136719819Y-87027380D02*
X135719819Y-87027380D01*
X135719819Y-87027380D02*
X135862676Y-87122618D01*
X135862676Y-87122618D02*
X135957914Y-87217856D01*
X135957914Y-87217856D02*
X136005533Y-87313094D01*
X170646666Y-104674819D02*
X170646666Y-105389104D01*
X170646666Y-105389104D02*
X170599047Y-105531961D01*
X170599047Y-105531961D02*
X170503809Y-105627200D01*
X170503809Y-105627200D02*
X170360952Y-105674819D01*
X170360952Y-105674819D02*
X170265714Y-105674819D01*
X171646666Y-105674819D02*
X171075238Y-105674819D01*
X171360952Y-105674819D02*
X171360952Y-104674819D01*
X171360952Y-104674819D02*
X171265714Y-104817676D01*
X171265714Y-104817676D02*
X171170476Y-104912914D01*
X171170476Y-104912914D02*
X171075238Y-104960533D01*
D13*
G04 #@! TO.C,U1*
X144210000Y-96927500D02*
X144210000Y-79782500D01*
X146115000Y-98832500D02*
X160085000Y-98832500D01*
X148605000Y-77877500D02*
X148608728Y-76867228D01*
X149108728Y-76367500D02*
X157104000Y-76367500D01*
X157604000Y-76867500D02*
X157604000Y-77877500D01*
D10*
X160085000Y-77877500D02*
X146115000Y-77877500D01*
D13*
X160085000Y-77877500D02*
X146115000Y-77877500D01*
X161990000Y-96927500D02*
X161990000Y-79782500D01*
X144210000Y-79782500D02*
G75*
G02*
X146115000Y-77877500I1905001J-1D01*
G01*
X146115000Y-98832500D02*
G75*
G02*
X144210000Y-96927500I1J1905001D01*
G01*
X148608728Y-76867228D02*
G75*
G02*
X149108728Y-76367501I500018J-291D01*
G01*
X157104000Y-76367500D02*
G75*
G02*
X157604000Y-76867500I0J-500000D01*
G01*
X160085000Y-77877500D02*
G75*
G02*
X161990000Y-79782500I0J-1905000D01*
G01*
X161990000Y-96927500D02*
G75*
G02*
X160085000Y-98832500I-1905000J0D01*
G01*
D14*
X144448000Y-78018500D02*
G75*
G02*
X143944000Y-78018500I-252000J0D01*
G01*
X143944000Y-78018500D02*
G75*
G02*
X144448000Y-78018500I252000J0D01*
G01*
X145591000Y-78898500D02*
G75*
G02*
X145087000Y-78898500I-252000J0D01*
G01*
X145087000Y-78898500D02*
G75*
G02*
X145591000Y-78898500I252000J0D01*
G01*
D13*
G04 #@! TO.C,SW1*
X137450000Y-86500000D02*
X137680000Y-86500000D01*
X137450000Y-90500000D02*
X137450000Y-86500000D01*
X137680000Y-90500000D02*
X137450000Y-90500000D01*
X140350000Y-86500000D02*
X140120000Y-86500000D01*
X140350000Y-86500000D02*
X140350000Y-90500000D01*
X140350000Y-90500000D02*
X140120000Y-90500000D01*
D15*
G04 #@! TO.C,J1*
X165490000Y-103780000D02*
X165490000Y-102450000D01*
X166600000Y-103780000D02*
X165490000Y-103780000D01*
X168060000Y-94470000D02*
X167650000Y-94470000D01*
X168060000Y-95190000D02*
X167650000Y-95190000D01*
X168060000Y-97010000D02*
X167650000Y-97010000D01*
X168060000Y-97730000D02*
X167650000Y-97730000D01*
X168060000Y-99550000D02*
X167650000Y-99550000D01*
X168060000Y-100270000D02*
X167650000Y-100270000D01*
X168060000Y-102090000D02*
X167710000Y-102090000D01*
X168060000Y-102810000D02*
X167710000Y-102810000D01*
X168060000Y-103780000D02*
X168060000Y-93500000D01*
X176690000Y-93500000D02*
X168060000Y-93500000D01*
X176690000Y-96100000D02*
X168060000Y-96100000D01*
X176690000Y-98640000D02*
X168060000Y-98640000D01*
X176690000Y-101180000D02*
X168060000Y-101180000D01*
X176690000Y-101298100D02*
X168060000Y-101298100D01*
X176690000Y-101416195D02*
X168060000Y-101416195D01*
X176690000Y-101534290D02*
X168060000Y-101534290D01*
X176690000Y-101652385D02*
X168060000Y-101652385D01*
X176690000Y-101770480D02*
X168060000Y-101770480D01*
X176690000Y-101888575D02*
X168060000Y-101888575D01*
X176690000Y-102006670D02*
X168060000Y-102006670D01*
X176690000Y-102124765D02*
X168060000Y-102124765D01*
X176690000Y-102242860D02*
X168060000Y-102242860D01*
X176690000Y-102360955D02*
X168060000Y-102360955D01*
X176690000Y-102479050D02*
X168060000Y-102479050D01*
X176690000Y-102597145D02*
X168060000Y-102597145D01*
X176690000Y-102715240D02*
X168060000Y-102715240D01*
X176690000Y-102833335D02*
X168060000Y-102833335D01*
X176690000Y-102951430D02*
X168060000Y-102951430D01*
X176690000Y-103069525D02*
X168060000Y-103069525D01*
X176690000Y-103187620D02*
X168060000Y-103187620D01*
X176690000Y-103305715D02*
X168060000Y-103305715D01*
X176690000Y-103423810D02*
X168060000Y-103423810D01*
X176690000Y-103541905D02*
X168060000Y-103541905D01*
X176690000Y-103660000D02*
X168060000Y-103660000D01*
X176690000Y-103780000D02*
X168060000Y-103780000D01*
X176690000Y-103780000D02*
X176690000Y-93500000D01*
G04 #@! TD*
%LPC*%
D16*
G04 #@! TO.C,U2*
X144618000Y-108320000D03*
D17*
X147158000Y-108320000D03*
X149698000Y-108320000D03*
X152238000Y-108320000D03*
X154778000Y-108320000D03*
X157318000Y-108320000D03*
X159858000Y-108320000D03*
X162398000Y-108320000D03*
G04 #@! TD*
D18*
G04 #@! TO.C,U1*
X144645000Y-80798500D03*
D17*
X145480000Y-80798500D03*
D18*
X144645000Y-83338500D03*
D17*
X145480000Y-83338500D03*
D18*
X144645000Y-85878500D03*
D17*
X145480000Y-85878500D03*
D18*
X144645000Y-88418500D03*
D17*
X145480000Y-88418500D03*
D18*
X144645000Y-90958500D03*
D17*
X145480000Y-90958500D03*
D18*
X144645000Y-93498500D03*
D17*
X145480000Y-93498500D03*
D18*
X144645000Y-96038500D03*
D17*
X145480000Y-96038500D03*
X160720000Y-96038500D03*
D19*
X161555000Y-96038500D03*
D17*
X160720000Y-93498500D03*
D19*
X161555000Y-93498500D03*
D17*
X160720000Y-90958500D03*
D19*
X161555000Y-90958500D03*
D17*
X160720000Y-88418500D03*
D19*
X161555000Y-88418500D03*
D17*
X160720000Y-85878500D03*
D19*
X161555000Y-85878500D03*
D17*
X160720000Y-83338500D03*
D19*
X161555000Y-83338500D03*
D17*
X160720000Y-80798500D03*
D19*
X161555000Y-80798500D03*
G04 #@! TD*
D20*
G04 #@! TO.C,SW1*
X138900000Y-90575000D03*
X138900000Y-86425000D03*
G04 #@! TD*
D21*
G04 #@! TO.C,J1*
X166600000Y-102450000D03*
D22*
X166600000Y-99910000D03*
X166600000Y-97370000D03*
X166600000Y-94830000D03*
G04 #@! TD*
%LPD*%
M02*
