M48
; DRILL file {KiCad 9.0.2} date 2025-06-11T04:48:03-0400
; FORMAT={-:-/ absolute / metric / decimal}
; #@! TF.CreationDate,2025-06-11T04:48:03-04:00
; #@! TF.GenerationSoftware,Kicad,Pcbnew,9.0.2
; #@! TF.FileFunction,Plated,1,2,PTH
FMAT,2
METRIC
; #@! TA.AperFunction,Plated,PTH,ComponentDrill
T1C0.800
; #@! TA.AperFunction,Plated,PTH,ComponentDrill
T2C0.889
; #@! TA.AperFunction,Plated,PTH,ComponentDrill
T3C1.000
%
G90
G05
T1
X144.618Y-108.32
X147.158Y-108.32
X149.698Y-108.32
X152.238Y-108.32
X154.778Y-108.32
X157.318Y-108.32
X159.858Y-108.32
X162.398Y-108.32
T2
X145.48Y-80.798
X145.48Y-83.338
X145.48Y-85.879
X145.48Y-88.418
X145.48Y-90.959
X145.48Y-93.498
X145.48Y-96.038
X160.72Y-80.798
X160.72Y-83.338
X160.72Y-85.879
X160.72Y-88.418
X160.72Y-90.959
X160.72Y-93.498
X160.72Y-96.038
T3
X166.6Y-94.83
X166.6Y-97.37
X166.6Y-99.91
X166.6Y-102.45
M30
