G04 #@! TF.GenerationSoftware,KiCad,Pcbnew,9.0.2*
G04 #@! TF.CreationDate,2025-06-11T04:48:02-04:00*
G04 #@! TF.ProjectId,HackCharm,4861636b-4368-4617-926d-2e6b69636164,rev?*
G04 #@! TF.SameCoordinates,Original*
G04 #@! TF.FileFunction,Soldermask,Top*
G04 #@! TF.FilePolarity,Negative*
%FSLAX46Y46*%
G04 Gerber Fmt 4.6, Leading zero omitted, Abs format (unit mm)*
G04 Created by KiCad (PCBNEW 9.0.2) date 2025-06-11 04:48:02*
%MOMM*%
%LPD*%
G01*
G04 APERTURE LIST*
G04 Aperture macros list*
%AMRoundRect*
0 Rectangle with rounded corners*
0 $1 Rounding radius*
0 $2 $3 $4 $5 $6 $7 $8 $9 X,Y pos of 4 corners*
0 Add a 4 corners polygon primitive as box body*
4,1,4,$2,$3,$4,$5,$6,$7,$8,$9,$2,$3,0*
0 Add four circle primitives for the rounded corners*
1,1,$1+$1,$2,$3*
1,1,$1+$1,$4,$5*
1,1,$1+$1,$6,$7*
1,1,$1+$1,$8,$9*
0 Add four rect primitives between the rounded corners*
20,1,$1+$1,$2,$3,$4,$5,0*
20,1,$1+$1,$4,$5,$6,$7,0*
20,1,$1+$1,$6,$7,$8,$9,0*
20,1,$1+$1,$8,$9,$2,$3,0*%
G04 Aperture macros list end*
%ADD10R,1.524000X1.524000*%
%ADD11C,1.524000*%
%ADD12RoundRect,0.152400X1.063600X0.609600X-1.063600X0.609600X-1.063600X-0.609600X1.063600X-0.609600X0*%
%ADD13RoundRect,0.152400X-1.063600X-0.609600X1.063600X-0.609600X1.063600X0.609600X-1.063600X0.609600X0*%
%ADD14RoundRect,0.102000X0.900000X-0.675000X0.900000X0.675000X-0.900000X0.675000X-0.900000X-0.675000X0*%
%ADD15R,1.700000X1.700000*%
%ADD16C,1.700000*%
G04 APERTURE END LIST*
D10*
G04 #@! TO.C,U2*
X144618000Y-108320000D03*
D11*
X147158000Y-108320000D03*
X149698000Y-108320000D03*
X152238000Y-108320000D03*
X154778000Y-108320000D03*
X157318000Y-108320000D03*
X159858000Y-108320000D03*
X162398000Y-108320000D03*
G04 #@! TD*
D12*
G04 #@! TO.C,U1*
X144645000Y-80798500D03*
D11*
X145480000Y-80798500D03*
D12*
X144645000Y-83338500D03*
D11*
X145480000Y-83338500D03*
D12*
X144645000Y-85878500D03*
D11*
X145480000Y-85878500D03*
D12*
X144645000Y-88418500D03*
D11*
X145480000Y-88418500D03*
D12*
X144645000Y-90958500D03*
D11*
X145480000Y-90958500D03*
D12*
X144645000Y-93498500D03*
D11*
X145480000Y-93498500D03*
D12*
X144645000Y-96038500D03*
D11*
X145480000Y-96038500D03*
X160720000Y-96038500D03*
D13*
X161555000Y-96038500D03*
D11*
X160720000Y-93498500D03*
D13*
X161555000Y-93498500D03*
D11*
X160720000Y-90958500D03*
D13*
X161555000Y-90958500D03*
D11*
X160720000Y-88418500D03*
D13*
X161555000Y-88418500D03*
D11*
X160720000Y-85878500D03*
D13*
X161555000Y-85878500D03*
D11*
X160720000Y-83338500D03*
D13*
X161555000Y-83338500D03*
D11*
X160720000Y-80798500D03*
D13*
X161555000Y-80798500D03*
G04 #@! TD*
D14*
G04 #@! TO.C,SW1*
X138900000Y-90575000D03*
X138900000Y-86425000D03*
G04 #@! TD*
D15*
G04 #@! TO.C,J1*
X166600000Y-102450000D03*
D16*
X166600000Y-99910000D03*
X166600000Y-97370000D03*
X166600000Y-94830000D03*
G04 #@! TD*
M02*
